<?xml version="1.0" standalone="no"?>
<!DOCTYPE svg PUBLIC "-//W3C//DTD SVG 1.1//EN" "http://www.w3.org/Graphics/SVG/1.1/DTD/svg11.dtd" >
<svg xmlns="http://www.w3.org/2000/svg">
<metadata>Generated by IcoMoon</metadata>
<defs>
<font id="gbiconv1" horiz-adv-x="1024">
<font-face units-per-em="1024" ascent="960" descent="-64" />
<missing-glyph horiz-adv-x="1024" />
<glyph unicode="&#x20;" horiz-adv-x="512" d="" />
<glyph unicode="&#xe600;" glyph-name="gbiconv1-322" d="M241.428 880.837c-33.871-3.938-70.105-15.754-99.643-32.295s-74.043-61.834-93.735-95.311c-33.083-56.714-53.169-145.329-44.505-199.286 18.905-116.578 126.031-252.062 321.378-406.843 42.535-33.477 153.6-112.64 177.625-126.425l12.603-7.089 56.32 38.597c247.335 168.566 408.418 340.677 442.683 472.615 8.665 33.477 7.877 92.948-1.575 133.908-33.083 138.634-131.545 223.311-259.938 223.311-46.474 0-78.769-7.877-120.517-29.538-37.809-19.692-79.557-59.865-102.006-98.462-8.271-14.572-15.754-26.388-16.542-26.388-0.394 0-9.058 11.815-18.511 26.782-19.298 28.357-58.289 69.317-83.102 85.858-48.443 33.083-108.702 47.262-170.535 40.566z" />
<glyph unicode="&#xe601;" glyph-name="gbiconv1-1" d="M256 698.092l-254.031-254.031h92.554v-508.062h275.692v417.477h283.569v-417.477h275.692v508.062h92.554l-139.815 139.815v324.923h-181.169v-68.923c0-37.809-1.182-68.923-3.151-68.923-1.575 0-43.717 40.96-93.342 90.585-49.625 50.018-91.372 90.585-92.554 90.585s-116.185-114.215-256-254.031z" />
<glyph unicode="&#xe602;" glyph-name="gbiconv1-2" d="M508.455 924.554c-2.363-5.514-30.72-87.040-63.015-181.169l-58.683-171.323-81.92-2.363c-45.292-1.182-120.517-2.757-166.991-3.545-46.474-0.394-94.917-1.969-107.52-3.545l-22.843-2.363 149.662-114.215c82.314-62.622 149.662-115.791 149.662-118.154 0.394-1.969-24.025-85.858-53.957-185.895s-52.775-180.775-50.412-179.2c2.363 1.182 72.862 50.806 157.145 109.883l152.418 107.52 152.812-107.52c83.889-59.077 154.388-108.702 157.145-110.277 2.363-1.575-1.575 17.329-9.058 41.748-83.495 277.662-97.28 326.498-93.342 328.862 2.363 1.575 70.105 53.169 150.449 115.003l146.511 112.246-22.843 2.363c-12.603 1.575-48.443 2.757-79.951 3.151-144.935 1.182-276.48 5.908-278.055 9.846-0.788 2.363-28.751 84.283-62.228 181.563-53.563 157.145-61.046 176.049-64.985 167.385z" />
<glyph unicode="&#xe603;" glyph-name="gbiconv1-3" d="M114.609 843.028l35.052-113.428v-159.508h59.077v159.508l69.317 224.492-27.569 1.182c-16.148 0.788-28.357-0.394-29.932-3.151-1.182-1.969-10.24-36.234-19.298-76.012-9.452-39.385-18.511-73.255-20.086-75.225-3.545-3.545-4.726-0.394-23.631 76.406-6.695 27.175-14.178 55.926-16.148 64.197l-3.938 14.572h-57.502l34.658-113.034zM331.225 857.6c-15.36-3.545-30.326-13.785-41.354-29.145-7.877-10.24-8.271-16.935-9.452-110.671-1.182-92.554-0.788-101.218 6.302-115.003 9.452-18.511 18.511-26.782 37.415-34.658 37.809-15.754 84.677 1.182 99.643 36.234 7.877 18.117 7.877 196.529 0 215.040-12.997 31.902-51.594 47.655-92.554 38.203zM369.428 807.975c8.665-5.908 8.665-7.483 8.665-94.917 0-77.588-0.788-90.191-6.695-96.492-7.877-8.665-24.025-9.058-33.477-0.394-6.302 5.908-7.089 14.178-7.089 96.098 0 88.222 0 89.797 8.665 95.705 4.726 3.545 11.422 6.302 14.966 6.302s10.24-2.757 14.966-6.302zM476.554 732.751c0-66.954 1.969-128.394 3.938-137.058 8.665-38.203 48.443-39.385 87.828-2.757l10.634 10.24v-33.083h51.2v283.569h-51.2v-215.040l-10.634-10.24c-13.391-12.209-24.812-16.148-32.689-11.028-5.12 3.151-5.908 21.662-7.089 120.123l-1.182 116.185h-50.806v-120.911zM320.197 518.892c-135.877-3.545-153.6-6.302-183.138-28.751-19.692-14.966-40.96-44.505-46.474-65.378-7.089-26.782-12.603-165.415-10.24-251.668 4.332-138.634 9.058-161.477 41.354-194.954 22.843-24.418 47.262-34.658 90.585-38.597 49.231-4.332 562.018-4.332 611.249 0 42.535 3.938 63.409 12.209 87.434 35.446 37.809 35.84 43.323 66.954 43.323 252.455 0 182.351-4.332 209.526-38.991 248.123-24.418 26.782-49.231 35.84-107.126 39.385-81.132 5.12-355.643 7.089-487.975 3.938zM330.831 398.769v-29.538h-59.077v-330.831h-63.015v330.831h-63.015v59.077h185.108v-29.538zM590.769 369.625v-59.077l18.117 10.24c33.083 18.511 65.772 4.726 76.012-33.083 5.514-19.298 5.514-199.286 0.394-218.585-2.363-7.877-9.846-19.298-16.542-24.812-11.028-9.452-15.36-10.634-33.477-9.058-13.391 1.182-25.6 5.12-32.689 10.634-11.815 8.271-11.815 8.271-11.815 0.394 0-7.089-2.363-7.877-29.538-7.877h-29.538v389.908h59.077v-58.683zM851.889 322.363c7.089-4.332 17.329-15.36 22.449-24.812 8.665-15.36 9.846-22.449 11.028-70.892l1.575-54.351h-103.188v-36.628c0-40.566 5.514-53.957 21.662-53.957 15.754 0 21.662 9.846 21.662 35.84v23.237h60.258l-2.363-29.538c-2.757-38.203-13.785-59.077-37.809-71.68-30.326-15.754-79.557-9.452-99.643 12.997-16.935 19.298-18.905 32.689-18.905 129.575 0 101.218 1.575 109.489 24.812 131.151 22.843 21.662 71.286 25.994 98.462 9.058zM385.969 210.117c0-130.757 0.394-132.332 25.206-116.972 7.483 4.726 14.572 11.028 15.754 14.572s2.363 53.957 2.363 112.246v105.945h55.138v-287.508h-55.138v29.145l-10.634-10.24c-15.36-14.178-33.871-22.843-50.018-22.843-37.415 0-37.809 1.575-37.809 159.508v131.938h55.138v-115.791zM597.465 277.465c-6.302-4.332-6.695-13.785-5.908-97.28l1.182-92.554 11.028-3.545c7.483-2.757 13.391-2.757 17.723 0 5.908 3.938 6.695 14.572 7.877 94.129 0.788 79.557 0 90.585-5.514 97.28-7.877 8.271-16.935 9.058-26.388 1.969zM799.508 279.828c-11.422-3.938-15.754-14.572-15.754-37.415v-22.843h43.323v25.206c0 22.055-1.182 26.388-8.665 31.508-9.452 6.695-9.846 6.695-18.905 3.545z" />
<glyph unicode="&#xe604;" glyph-name="gbiconv1-4" d="M522.24 887.138c-3.938-53.169-6.695-68.923-11.815-68.923-2.363-0.394-24.812-26.782-49.625-59.471-63.409-82.314-58.683-73.255-45.292-83.889l11.422-9.058-5.12-44.898c-7.483-66.56-7.483-66.954-18.905-65.772-17.329 1.969-24.025-12.997-33.477-72.862-9.452-58.683-8.665-57.502-34.265-50.018-7.483 1.969-14.178 3.151-14.966 2.363-1.969-1.575-71.68-417.477-70.498-418.658 0.394-0.394 13.391 0 28.751 1.575l27.569 2.363 31.114 172.111c30.72 172.111 30.72 172.111 42.142 178.806 9.058 5.12 12.603 5.514 18.117 1.182 6.302-4.332 5.514-16.542-15.754-195.742-12.603-105.157-22.843-193.378-23.237-196.135 0-3.545 2.757-4.332 7.483-2.757 5.12 1.575 7.877 0.394 9.058-4.332 1.575-7.483 70.105-36.628 87.828-37.022 6.695 0 48.443 5.514 93.735 12.603 60.258 9.452 81.526 14.178 81.526 18.117s3.151 4.726 11.422 2.757l11.028-2.363-1.575 18.905c-4.726 60.258-24.418 404.48-23.237 406.055 1.182 0.788 9.058 0.394 17.723-1.182 19.298-3.151 14.966 16.148 37.809-177.231 23.631-199.68 19.298-178.806 36.628-174.868 22.449 5.12 23.237 4.726 25.994-15.754 2.363-18.905 2.757-19.298 18.511-22.055 20.086-3.545 50.806 0.788 50.806 7.089-0.394 2.757-12.997 77.194-28.751 166.203-30.72 172.898-27.963 164.234-51.2 172.111-1.575 0.788-6.302 22.449-10.634 48.049-3.938 25.6-7.877 47.262-8.665 48.049-0.788 0.394-15.36 7.089-32.689 14.178l-31.508 13.391-10.634 105.945-11.028 105.945 31.902 32.689-133.12 86.646-2.363 24.812c-1.575 13.785-2.757 34.658-3.151 46.868 0 12.209-1.575 29.145-3.151 37.809-2.363 13.391-3.151 10.24-5.908-23.631zM571.077 707.938c0-11.028-0.788-19.692-1.969-19.692s-6.695 2.757-11.815 6.302c-8.271 5.514-9.846 9.452-9.846 25.6v19.692l11.815-6.302c10.634-5.514 11.815-7.877 11.815-25.6zM614.4 683.914v-19.692l-11.815 6.302c-10.634 5.514-11.815 7.877-11.815 25.994v19.692l11.815-6.302c10.634-5.514 11.815-7.877 11.815-25.994zM492.308 706.757c0-2.757-11.422-16.542-25.6-30.326-19.298-18.905-25.6-23.631-25.6-17.723 0 7.089 41.748 53.169 48.049 53.169 1.575 0 3.151-2.363 3.151-5.12zM575.015 655.951v-18.905l-13.785 6.695c-12.997 6.302-13.785 7.877-13.785 25.6v18.905l13.785-6.695c12.997-6.302 13.785-7.877 13.785-25.6zM492.308 659.495c0-2.757-13.391-18.117-29.538-34.265-36.234-36.234-38.991-28.357-3.545 11.028 25.6 27.963 33.083 33.477 33.083 23.237zM605.342 657.526c4.726-3.938 9.452-13.391 11.028-23.237 3.151-18.905 0-20.874-15.754-10.634-7.877 5.12-9.846 9.846-9.846 23.631 0 18.905 1.969 20.48 14.572 10.24zM563.2 631.138c10.634-5.514 11.815-7.877 11.815-25.6v-19.692l-13.785 6.695c-12.997 6.302-13.785 7.877-13.785 25.6 0 10.24 0.788 18.905 1.969 18.905 1.575 0 7.483-2.757 13.785-5.908zM460.406 575.606c-28.751-29.145-35.052-33.477-35.052-24.418 0 7.877 59.865 64.985 62.228 58.683 0.788-2.757-11.028-17.723-27.175-34.265zM608.492 608.689c8.665-3.938 9.846-6.695 9.846-23.631 0-10.24-0.788-18.905-1.969-18.905-7.483 0-21.662 10.24-21.662 15.754 0 3.938-1.182 12.603-2.363 19.298-2.757 13.391 0 14.966 16.148 7.483zM564.382 581.514c9.846-4.332 14.572-18.511 14.572-43.717 0-12.603 0-12.603-17.723-5.514-13.391 5.908-13.785 6.302-13.785 29.538 0 25.206 1.575 26.782 16.935 19.692zM622.277 529.526c0-20.48-0.788-22.843-6.695-20.48-3.938 1.575-10.24 3.938-13.785 4.726-5.908 1.575-7.089 6.695-7.089 27.175v25.206l13.785-6.695c13.391-6.302 13.785-7.089 13.785-29.932zM484.431 550.794c0-4.332-10.634-16.148-26.388-28.751-33.871-27.175-36.628-28.751-36.628-21.662 0 4.332 56.32 56.714 62.228 57.895 0.394 0 0.788-3.151 0.788-7.483zM565.169 517.317c13.391-5.908 13.785-6.302 13.785-29.538 0-13.391-1.575-24.025-3.545-24.025-1.575 0-8.665 1.969-15.754 4.332-11.815 4.332-12.209 4.726-12.209 29.538 0 13.785 0.788 25.206 1.969 25.206s8.271-2.757 15.754-5.514zM626.215 466.905c0-12.603-0.788-22.843-1.575-22.843-0.394 0-6.695 1.969-13.785 4.332-11.815 4.332-12.209 4.726-12.209 29.538v25.206l13.785-6.695c13.391-6.302 13.785-7.089 13.785-29.538zM484.431 486.203c0-2.757-3.151-6.695-6.695-9.452-3.938-2.363-20.086-13.391-35.446-24.418-23.237-16.542-28.751-18.905-28.751-12.997 0 4.726 11.422 15.36 32.295 29.538 33.871 23.631 38.597 25.6 38.597 17.329zM566.745 451.545l12.209-4.332v-29.145c0-17.329-1.575-29.145-3.938-29.145s-3.545 4.726-3.151 10.634c1.182 9.058-0.788 11.028-11.422 14.178-12.209 3.545-12.997 4.726-12.997 22.843 0 20.874 0.788 21.268 19.298 14.966zM625.034 432.246c0.788 0 1.182-9.452 1.182-20.48-0.394-25.6-7.483-37.415-19.298-30.72-7.089 3.545-8.271 7.877-8.271 31.508v27.175l12.603-3.938c7.089-1.969 13.391-3.545 13.785-3.545zM612.431 356.628c9.058-3.938 9.846-6.302 9.846-31.508 0-14.572-0.788-26.782-1.575-26.782-1.182 0-6.302 1.575-11.815 3.938-9.846 3.545-10.24 5.514-10.24 31.508 0 14.966 0.788 27.569 1.969 27.569 0.788 0 6.302-1.969 11.815-4.726zM270.966 429.095c-6.695-6.695-12.209-20.086-16.148-37.415-3.545-15.36-9.058-29.538-13.785-33.477-5.12-4.726-19.298-49.625-48.049-155.569l-40.96-148.874 20.48-20.086 20.086-20.48 2.363 10.634c5.908 23.631 87.828 414.326 87.040 415.114-0.394 0.788-5.514-3.938-11.028-9.846zM768 395.618c0-5.514 74.043-367.852 76.406-375.335 0.788-2.363 7.877-3.151 15.754-2.363 11.422 1.182 14.178 3.151 14.178 10.24 0 4.332-16.542 87.040-36.628 183.532l-36.628 175.262-13.391 6.695c-16.935 8.271-19.692 8.665-19.692 1.969z" />
<glyph unicode="&#xe605;" glyph-name="gbiconv1-5" d="M833.378 889.108c-90.585-16.148-171.717-74.831-212.677-153.6-14.178-27.175-28.751-69.317-25.206-72.862 1.182-1.182 8.271 0.788 16.148 3.938 44.505 18.511 76.8 15.36 101.612-9.452 25.6-25.206 28.751-75.225 7.877-123.668-19.692-46.080-79.557-139.422-111.458-174.474-36.234-39.385-53.563-36.628-76.012 11.422-16.935 37.022-50.412 159.114-63.015 231.188-25.6 146.117-37.809 193.772-59.865 231.188-12.603 21.662-35.84 42.142-54.351 48.443-42.535 14.178-114.215-15.754-199.68-82.708-35.84-27.963-148.874-138.634-148.874-145.329 0-4.332 35.052-51.594 38.597-51.594 0.788 0 6.302 3.545 12.603 7.877 38.991 27.569 86.252 38.991 100.037 24.025 10.634-11.815 31.902-69.317 69.711-191.409 99.643-320.197 105.551-335.163 148.086-380.062 35.052-37.415 66.166-53.169 105.157-52.775 22.843 0 31.902 1.969 49.625 11.028 44.898 22.449 132.332 95.311 206.769 172.111 142.572 147.298 237.095 301.292 274.117 447.409 13.391 53.169 15.754 118.942 5.514 153.206-11.815 40.566-49.625 78.375-90.585 90.585-25.206 7.483-69.317 9.846-94.129 5.514z" />
<glyph unicode="&#xe606;" glyph-name="gbiconv1-6" d="M200.862 678.006c-47.262-8.271-89.009-28.751-121.305-58.683-31.114-28.751-50.806-59.077-65.378-100.431-16.935-48.443-16.935-105.157 0-153.6 14.572-41.354 34.265-71.68 65.378-100.431 41.748-38.991 92.554-59.077 148.874-59.077s107.126 20.086 148.874 59.077c31.114 28.751 50.806 59.077 65.378 100.431 10.24 29.538 11.815 38.597 11.815 76.8s-1.575 47.262-11.815 76.8c-6.695 18.511-18.511 43.717-26.782 55.926-29.145 44.111-78.375 81.132-128 96.098-19.298 5.908-70.892 9.846-87.040 7.089zM768 678.006c-47.262-8.271-89.009-28.751-121.305-58.683-31.114-28.751-50.806-59.077-65.378-100.431-10.24-29.538-11.815-38.597-11.815-76.8s1.575-47.262 11.815-76.8c14.572-41.354 34.265-71.68 65.378-100.431 41.748-38.991 92.554-59.077 148.874-59.077s107.126 20.086 148.874 59.077c31.114 28.751 50.806 59.077 65.378 100.431 10.24 29.538 11.815 38.597 11.815 76.8s-1.575 47.262-11.815 76.8c-6.695 18.511-18.511 43.717-26.782 55.926-29.145 44.111-78.375 81.132-128 96.098-19.298 5.908-70.892 9.846-87.040 7.089z" />
<glyph unicode="&#xe607;" glyph-name="gbiconv1-7" d="M254.234 889.379c-90.63-15.301-169.49-81.214-189.891-158.504-16.478-61.205 4.316-130.256 52.966-179.298 38.449-38.057 88.276-58.066 146.342-58.458h22.363l-6.277-18.048c-3.923-11.378-5.493-26.287-4.316-41.195 1.569-19.225 4.316-27.071 17.655-46.296l15.693-23.148-53.358-1.962c-61.205-2.354-86.707-8.239-132.61-30.995-58.851-28.641-103.577-79.252-117.309-132.218-11.378-45.511 1.962-86.707 39.234-121.232 41.588-37.664 105.146-60.42 190.676-68.267 41.195-3.531 55.712-3.139 91.022 1.962 129.079 19.617 207.154 94.946 207.154 200.484 0 71.798-22.756 114.562-88.276 166.351-52.573 41.588-72.582 67.482-72.582 94.161 0 25.894 10.201 42.372 43.157 69.836 57.674 48.257 79.644 89.453 80.037 148.696 0.392 67.874-23.54 118.878-72.19 151.834-9.416 6.277-8.631 6.67 31.779 6.67l41.195 0.392 58.066 43.157-141.241-0.392c-77.29-0.392-149.088-1.962-159.289-3.531zM308.377 840.337c40.018-22.756 76.113-73.759 89.453-125.94 9.024-34.133 8.239-85.137-1.569-116.524-9.808-31.779-35.31-61.989-60.812-71.798-38.057-14.516-85.137-0.785-121.232 35.31-38.449 38.841-61.989 98.869-62.382 159.289 0 58.066 22.363 104.362 60.028 124.763 15.301 8.239 21.579 9.024 47.473 7.847 23.933-1.569 33.741-3.923 49.042-12.947zM339.764 335.007c13.339-3.531 31.779-14.124 57.281-32.956 56.104-41.588 69.836-63.559 69.836-110.639 0-67.482-34.918-110.247-107.893-132.218-34.526-10.593-120.84-10.201-153.011 0.392-69.444 22.756-118.878 90.238-109.854 150.657 8.631 56.104 62.774 106.323 133.787 123.586 29.425 7.062 84.352 7.847 109.854 1.177zM804.291 803.065v-90.238h-172.628v-39.234h172.628v-180.475h43.157v180.475h172.628v39.234h-172.628v180.475h-43.157v-90.238z" />
<glyph unicode="&#xe608;" glyph-name="gbiconv1-8" d="M586.544 954.507c-62.774-10.593-99.654-28.248-137.71-66.697-51.004-51.004-60.42-83.96-60.42-209.116v-87.491h-141.241v-172.628h141.241v-478.651h188.322v478.651h187.145l2.746 69.836c1.569 38.057 3.531 76.898 5.1 86.314l1.962 16.478h-196.953v77.683c0.392 121.625 1.569 123.194 115.739 125.548 47.473 1.177 71.405 3.139 73.367 6.277 1.569 2.354 3.139 37.272 3.139 77.29v73.367l-12.555 2.354c-31.387 5.493-139.28 5.885-169.882 0.785z" />
<glyph unicode="&#xe609;" glyph-name="gbiconv1-9" d="M474.728 955.684c-174.198-20.009-308.377-133.002-348.003-292.291-14.909-60.028-5.885-147.519 20.794-203.623 21.579-45.903 86.314-99.654 107.108-88.668 4.708 2.746 9.808 11.378 12.162 21.186 2.354 9.024 5.885 21.579 7.847 27.856 6.67 19.617 4.316 29.818-11.77 52.181-24.325 34.133-29.425 53.75-29.033 112.993 0 43.549 1.569 55.32 10.201 81.214 30.602 92.592 100.438 158.897 194.207 184.398 44.726 12.162 120.84 12.162 163.997-0.392 80.037-22.363 130.256-70.621 153.796-147.519 5.493-18.44 7.062-35.31 6.67-78.467-1.177-114.17-35.31-210.685-94.161-264.435-48.65-44.726-121.232-48.65-161.251-9.024-31.387 31.387-31.387 63.559-1.177 163.605 38.057 125.94 38.449 165.566 2.354 197.346-37.664 32.956-94.553 21.971-130.256-25.502-30.602-40.018-40.018-114.17-21.971-172.236l8.631-27.856-39.234-165.959c-21.579-91.022-40.803-180.083-43.157-197.346-7.847-62.382-0.392-181.26 11.378-181.26 6.277 0 42.372 49.827 68.267 94.161 25.11 43.157 40.018 83.96 61.597 170.667 10.985 44.334 20.794 82.783 21.971 85.922 1.177 3.923 4.708 1.569 10.985-7.847 23.933-35.31 80.429-59.635 137.71-59.635 70.228 0.392 133.395 25.11 184.791 72.975 61.989 58.066 98.084 128.294 117.701 228.733 9.808 51.396 9.024 135.356-1.569 174.982-37.272 137.71-156.935 235.402-310.731 254.234-37.664 4.316-67.482 4.316-109.854-0.392z" />
<glyph unicode="&#xe60a;" glyph-name="gbiconv1-10" d="M666.973 863.485c-39.234-8.239-72.19-26.679-101.615-56.104-45.903-45.511-65.913-98.084-61.989-162.82l2.354-34.526-26.287 2.746c-138.887 14.124-264.435 73.759-364.874 173.413l-40.411 40.411-9.416-20.794c-35.31-77.29-13.732-174.198 52.181-234.618l22.363-20.402-21.579 1.962c-11.77 1.569-29.425 5.493-39.234 9.024-32.564 11.77-31.387 12.162-31.387-2.746 0-20.402 10.593-56.889 24.325-82.783 24.717-46.296 66.697-81.998 116.524-99.261 25.11-8.239 25.502-8.631 14.124-11.77-6.277-1.962-27.071-3.531-45.903-3.531-19.225 0-34.526-1.569-34.526-3.531 0-10.593 28.641-54.535 49.042-74.936 34.133-34.526 88.668-60.812 126.333-60.812 6.67 0 13.339-1.569 14.516-3.139 2.746-4.708-43.157-34.133-82.391-52.181-53.75-25.502-99.654-35.703-163.212-36.095-61.989-0.785-61.989-0.392-5.493-29.033 95.338-48.257 215.393-71.013 320.147-60.42 140.849 14.516 253.45 64.343 347.611 154.189 118.486 113.385 189.891 275.421 189.891 431.963 0 20.794 1.569 38.057 3.139 38.057 6.277 0 63.951 55.712 81.214 78.467l17.655 23.148-27.856-9.416c-31.779-10.985-82.783-22.363-85.922-19.225-0.785 1.177 1.569 3.923 5.885 6.277 16.086 8.631 55.32 52.966 67.874 76.113 6.67 13.339 12.555 25.11 12.555 26.287s-14.909-4.708-32.956-12.947c-18.048-8.631-47.080-19.225-64.343-23.933l-31.779-8.631-18.44 16.478c-23.933 21.186-59.243 38.057-93.769 45.511-33.349 7.062-51.004 7.062-84.352-0.392z" />
<glyph unicode="&#xe60b;" glyph-name="gbiconv1-11" d="M403.692 935.582c-4.332-30.72-20.086-83.102-33.083-108.702-34.265-67.742-82.314-108.308-164.628-138.634l-24.812-8.665v-140.997h141.785v-193.772c0.394-240.64 1.969-257.575 31.902-302.080 29.145-43.717 90.585-82.708 156.751-99.249 29.538-7.483 40.96-8.271 106.338-6.302 81.92 1.969 105.157 6.695 176.837 35.052l40.172 16.148v77.982c0 43.323-0.788 78.375-1.969 78.375s-11.422-5.12-22.843-11.422c-11.028-6.695-34.658-16.542-51.988-22.449-26.782-9.058-38.203-10.634-74.831-11.028-62.228 0-97.674 15.754-119.335 52.382l-10.634 18.117-1.182 184.32-1.182 183.926h240.64v181.169h-240.246v236.308h-144.935l-2.757-20.48z" />
<glyph unicode="&#xe60c;" glyph-name="gbiconv1-12" d="M126.818 955.668c-57.895-11.422-109.489-63.803-122.486-124.849-6.302-29.145-6.302-736.492 0-765.637 13.391-62.622 64.591-113.822 126.031-125.243 27.569-5.12 735.705-5.12 763.274 0 61.44 11.422 112.64 62.622 126.031 125.243 6.302 29.145 6.302 736.492 0 765.637-13.391 62.622-64.591 113.822-126.031 125.243-25.206 4.726-742.4 4.726-766.818-0.394zM295.385 786.708c80.345-12.997 154.388-80.345 175.262-159.508 7.483-29.145 7.483-83.889 0-112.246-25.6-96.886-111.852-163.052-212.677-163.052-60.652 0-111.065 20.48-153.206 62.622-74.831 73.649-86.252 189.834-27.175 278.449 21.662 32.689 46.080 54.351 81.92 72.468 45.292 22.449 87.040 28.751 135.877 21.268zM968.862 661.858l-0.394-121.305-207.163-176.837c-114.215-97.28-209.526-176.837-211.889-177.231-2.757-0.394-43.323 34.265-90.191 76.406-76.8 69.317-84.677 77.194-78.375 81.92 41.748 29.538 59.471 44.505 74.437 63.409 10.24 12.209 19.298 22.449 20.874 23.237 1.575 0.394 18.511-23.237 37.415-52.382 27.175-41.354 35.84-52.382 39.778-49.231 2.757 2.363 96.886 105.157 209.132 228.431 112.246 123.668 204.8 224.492 205.194 224.492 0.788 0 1.182-54.351 1.182-120.911zM631.335 614.203l69.711-69.711-71.68-78.769c-39.385-43.323-72.468-79.163-74.043-79.951-1.575-0.394-15.36 18.511-30.72 42.535l-28.357 43.717 7.877 28.357c11.028 41.748 12.997 68.529 7.877 103.188l-4.726 30.72 24.812 24.812c13.785 13.785 25.994 25.206 27.175 25.206s33.477-31.508 72.074-70.105zM872.369 373.169l20.086-19.692-167.778-167.385-167.778-167.778-41.748 42.535c-78.769 80.738-239.458 250.486-238.277 251.668 0.394 0.394 14.178 3.938 29.932 7.089l29.145 6.302 33.477-30.72c98.855-89.797 176.443-158.326 178.806-158.326 1.182 0 69.711 57.502 151.631 127.606 81.92 70.498 149.662 128 150.843 128 0.788 0.394 10.634-8.271 21.662-19.298z" />
<glyph unicode="&#xe60d;" glyph-name="gbiconv1-13" d="M0 856.812v-104.369l43.323-2.757c329.255-19.692 613.218-235.52 720.345-547.052 26.388-76.8 43.717-170.929 43.717-237.489v-29.145h213.465l-2.757 44.505c-5.908 100.037-22.055 188.258-49.231 270.572-102.006 310.745-342.252 552.566-651.422 655.754-86.646 28.751-172.505 44.505-276.874 51.594l-40.566 2.363v-103.975zM0 505.502v-103.975l30.72-2.757c166.203-14.966 307.2-110.671 379.668-257.969 26.782-54.351 46.474-132.726 46.474-183.926v-20.874h212.677v24.812c-0.394 54.745-18.905 147.692-42.142 209.526-77.982 207.951-259.151 369.034-473.403 419.84-37.809 9.058-108.308 19.298-135.089 19.298h-18.905v-103.975zM102.4 209.723c-42.535-12.209-74.831-38.991-92.948-78.375-7.877-16.542-9.452-26.388-9.452-55.926 0-31.902 1.182-38.203 12.209-59.865 40.96-82.314 151.237-103.582 218.978-42.142 62.228 55.532 62.228 149.268 0 204.8-33.477 30.72-86.252 43.323-128.788 31.508z" />
<glyph unicode="&#xe60e;" glyph-name="gbiconv1-14" d="M92.984 912.92c-54.535-13.732-90.63-59.635-90.63-115.739 0.392-62.382 45.511-110.247 107.5-114.955 34.133-2.354 60.028 6.277 84.352 27.464 50.611 44.726 54.535 121.625 8.631 168.705-28.641 29.425-73.367 43.549-109.854 34.526zM782.713 594.734c-62.774-6.277-102.792-25.894-151.834-74.936l-34.526-34.133v97.692h-211.862v-604.199h227.163l1.177 175.767c1.569 154.189 2.354 177.729 8.631 196.169 7.062 21.971 28.248 48.65 45.119 57.281 29.818 15.301 73.759 10.201 96.123-10.985 24.717-23.148 25.894-32.564 25.894-236.579v-181.652h231.871l-1.569 222.848c-1.177 193.815-2.354 225.594-8.239 247.565-27.856 105.931-108.677 157.327-227.948 145.165zM3.923 277.333v-302.1h227.556v604.199h-227.556v-302.1z" />
<glyph unicode="&#xe60f;" glyph-name="gbiconv1-15" d="M491.52 904.862c-75.225-11.815-135.089-48.443-167.385-102.4-10.634-17.329-25.206-65.378-22.449-72.468 3.151-8.665 10.634-10.634 68.529-18.117s65.378-6.302 69.317 11.028c8.271 34.658 33.477 59.471 68.923 67.742 41.748 10.24 83.889-10.24 93.735-45.292 2.363-8.665 4.332-29.538 4.332-46.080 0-35.446 6.695-31.508-63.015-38.597-98.462-9.452-161.871-32.295-204.406-72.862-38.597-36.628-55.532-78.769-55.532-137.846 0.394-105.157 61.834-167.385 166.203-167.385 66.56 0 107.126 15.36 152.418 57.502 13.391 12.209 24.812 21.662 25.6 20.874 0.394-0.788 8.271-11.422 16.935-23.237 20.086-27.963 46.080-51.2 56.714-51.2 7.877 0 46.868 30.72 89.403 70.105 19.298 17.723 19.298 18.511-5.514 54.745-9.452 13.785-18.905 31.508-20.874 39.385-2.757 9.058-4.332 67.742-4.332 146.905 0 139.422-2.757 170.535-16.148 206.769-16.148 42.929-64.985 79.951-126.031 94.523-31.508 7.483-96.492 10.634-126.425 5.908zM605.342 531.889c-2.363-70.105-16.148-102.794-53.563-129.182-14.572-10.24-20.086-11.815-42.929-11.815-31.114 0-46.474 8.665-58.289 32.295-11.028 22.449-10.24 76.012 1.182 98.068 20.48 38.597 65.378 58.289 136.665 60.258l18.905 0.394-1.969-50.018zM921.6 203.815c-27.963-3.545-48.837-10.24-69.711-22.449-18.117-10.24-23.631-23.631-7.877-19.298 4.726 1.182 29.932 3.545 55.926 4.726 38.203 1.969 50.018 1.575 62.228-3.545 13.391-5.908 14.572-7.877 14.572-21.268 0-17.329-9.846-53.563-24.812-92.554-6.695-17.329-8.665-27.569-6.302-29.145 5.908-3.545 33.477 24.418 46.868 47.655 21.662 38.597 37.022 102.794 27.963 119.335-7.483 14.178-55.532 22.449-98.855 16.542zM1.969 180.578c-1.182-1.969 8.271-12.997 21.268-24.025 89.009-78.375 215.434-140.209 337.132-165.022 56.32-11.422 134.695-17.329 183.138-14.572 135.877 8.665 265.846 50.018 364.702 115.397 22.449 14.966 27.963 22.843 20.874 31.114-6.695 8.271-14.178 7.089-51.2-7.877-187.077-75.618-421.809-85.858-631.729-27.963-63.015 17.329-127.606 42.535-186.683 73.255-46.080 23.631-53.169 25.994-57.502 19.692z" />
<glyph unicode="&#xe610;" glyph-name="gbiconv1-16" d="M454.892 951.729c-25.994-3.545-92.554-18.905-111.065-25.994-7.483-2.757 13.391-23.237 183.138-177.625l191.803-174.474 1.182 166.597c0.788 151.237 0.394 166.991-5.514 171.323-10.24 7.483-75.225 28.357-109.489 34.658-40.172 7.877-114.609 10.634-150.055 5.514zM246.942 879.655c-183.138-113.428-278.055-327.286-235.52-531.298 3.545-16.935 7.483-31.114 9.058-31.508 3.938-1.182 448.591 403.692 447.409 406.843-1.969 4.332-189.046 173.292-191.409 172.898-1.575 0-14.966-7.483-29.538-16.935zM779.815 576v-301.292h215.434l8.271 30.72c14.572 53.957 18.117 80.345 17.723 138.634 0 105.945-28.357 196.529-89.009 287.508-24.025 35.84-94.129 106.732-127.606 129.575l-24.812 16.542v-301.686zM145.723 351.114c-53.169-48.837-98.855-90.978-102.006-94.129-11.028-11.028 35.052-91.766 85.465-150.055 24.812-28.751 82.314-78.769 107.52-93.735l11.422-6.695v216.615c0 119.335-1.182 217.009-2.757 216.615-1.969 0-46.474-39.778-99.643-88.615zM303.262 97.871v-121.698l18.905-7.877c10.634-4.726 35.052-12.997 54.351-18.905 31.902-9.846 42.142-11.028 117.76-12.603 90.978-1.969 115.791 0.788 171.717 19.298 92.16 29.932 177.625 87.828 236.702 159.902 22.055 26.388 66.166 93.735 66.166 100.431 0 1.575-149.662 3.151-332.8 3.151h-332.8v-121.698z" />
<glyph unicode="&#xe611;" glyph-name="gbiconv1-17" d="M591.951 674.462c-29.538-6.302-55.926-17.723-80.738-34.658l-18.905-12.603v-415.508h202.043c129.182 0 210.708 1.575 225.28 4.332 44.898 8.271 76.406 31.508 93.342 68.529 7.877 17.329 9.058 25.994 9.058 70.892 0 48.049-0.788 52.382-11.028 73.649-25.6 51.988-86.252 80.738-137.846 64.591-14.178-4.332-19.298-4.332-20.086-1.182-0.788 2.757-3.545 13.785-5.908 24.418-17.723 76.406-85.858 140.209-167.778 157.538-33.477 7.089-55.138 7.089-87.434 0zM342.646 409.009v-197.317h39.385l-0.788 196.135-1.182 195.742-37.415 2.363v-196.923zM458.831 590.178l-7.483-11.422-14.178 7.089c-7.483 3.545-17.723 8.271-22.449 9.452l-9.058 2.757v-386.363h63.015v194.954c0 107.126-0.394 194.954-0.788 194.954-0.788 0-4.726-5.12-9.058-11.422zM273.723 584.665l-15.754-9.058-1.182-181.957-0.788-181.957h39.385v191.015c0 105.157-1.182 191.015-2.757 191.015-1.969 0-10.24-4.332-18.905-9.058zM199.286 514.166c-5.514-9.452-12.209-25.206-14.966-35.84-3.151-12.209-6.695-18.117-9.846-16.935-3.938 1.575-5.12-22.843-5.12-123.668v-126.031h43.323v159.508c0 87.828-0.788 159.508-1.969 159.508-0.788 0-5.908-7.483-11.422-16.542zM85.465 472.812c-1.575-1.182-2.757-59.471-2.757-129.182v-126.818l14.966-2.757c31.114-5.12 28.357-17.723 28.357 129.575v131.938h-18.905c-10.634 0-20.48-1.182-21.662-2.757zM23.631 431.458c-17.723-24.418-23.631-49.625-22.055-95.705 1.182-32.689 2.757-42.535 11.028-59.077 5.514-10.634 13.785-23.237 18.511-27.175l8.271-7.483v102.794c0 56.714-0.788 103.188-1.969 103.188s-7.483-7.483-13.785-16.542z" />
<glyph unicode="&#xe612;" glyph-name="gbiconv1-18" d="M452.923 955.668c-206.375-23.631-382.818-178.018-435.594-380.849-70.105-270.572 95.311-550.597 367.852-621.489 270.572-70.105 550.597 95.311 621.489 367.852 21.268 82.314 21.268 171.323 0 253.637-64.197 246.548-301.686 409.6-553.748 380.849zM598.252 866.658c40.172-7.877 87.828-25.994 124.062-46.474 34.658-19.692 85.071-59.077 85.071-66.166 0-4.726-61.046-51.594-104.369-80.345-29.538-19.298-88.615-52.382-113.034-63.409l-18.511-8.271-26.388 46.080c-33.477 58.289-72.862 117.366-113.034 169.748-23.237 29.932-29.932 41.354-25.994 43.717 4.332 2.757 29.538 7.089 80.345 13.391 19.692 2.363 81.132-1.969 111.852-8.271zM335.951 805.612c45.686-54.745 107.52-144.542 140.209-204.8l16.935-30.72-11.422-4.332c-20.086-7.483-107.52-30.72-140.209-37.022-58.289-11.028-129.575-17.723-190.622-17.723-69.711 0-64.985-3.938-52.775 44.505 25.206 98.068 92.554 192.197 177.625 248.123 18.511 12.209 35.446 22.055 38.203 22.449 2.363 0 12.209-9.452 22.055-20.48zM877.883 669.342c30.326-47.262 52.775-115.003 59.471-178.412 1.969-22.055 3.545-40.566 3.151-40.96-0.788-0.788-16.935 2.363-36.628 6.695-52.382 11.422-163.446 14.178-222.129 5.514-24.418-3.938-44.898-6.302-45.292-5.514s-7.089 16.542-14.966 35.446l-14.572 34.265 21.268 9.846c54.745 24.812 159.114 90.978 208.738 131.938 12.997 11.028 24.812 19.692 25.994 19.692 1.575 0.394 8.271-8.271 14.966-18.511zM541.538 468.874c5.908-14.966 11.422-28.751 12.603-31.114 0.788-2.757-14.572-10.634-36.234-19.298-44.898-17.723-95.311-46.080-144.935-80.738-43.717-30.72-123.274-109.095-150.449-148.48-10.634-15.754-21.662-28.357-24.418-28.751-7.877 0-51.988 62.228-70.105 99.643-21.662 44.898-37.022 97.674-40.172 137.846l-2.363 30.326h66.56c74.831 0 150.449 7.483 218.978 22.055 50.018 10.634 121.698 30.326 142.178 38.991 6.695 3.151 13.785 5.514 14.966 5.908 1.575 0 7.483-11.815 13.391-26.388zM893.243 373.957c17.723-3.938 33.477-8.665 34.658-9.846 3.938-3.938-8.665-50.018-23.237-84.283-19.298-45.686-54.351-96.886-90.978-133.514-28.751-28.751-75.618-64.591-83.889-64.591-1.969 0-5.514 18.117-8.271 40.566-6.695 54.745-25.206 144.148-42.142 203.225-7.483 26.782-13.391 49.231-12.997 49.625 0.788 0.788 12.603 3.151 26.782 5.12 40.172 6.695 161.083 2.757 200.074-6.302zM597.858 309.366c24.812-89.009 43.323-186.683 44.898-239.065l1.182-29.538-27.175-7.089c-69.317-17.723-152.812-16.935-222.129 3.151-33.871 9.452-103.975 41.748-122.88 56.32l-9.846 7.877 19.298 27.569c40.96 60.258 116.185 129.969 185.502 171.717 29.538 18.117 105.157 52.775 114.609 53.169 2.363 0 9.846-20.086 16.542-44.111z" />
<glyph unicode="&#xe613;" glyph-name="gbiconv1-19" d="M295.385 946.215l-9.452-10.24 44.111-44.111c24.418-24.418 44.111-45.292 44.111-46.868s-9.058-11.422-20.086-21.662l-20.086-18.905-136.665-1.969c-146.905-1.969-148.086-2.363-168.566-24.418-21.662-22.843-20.874-9.452-20.874-389.908 0-333.588 0.394-352.492 7.483-367.458 15.754-33.871 32.295-41.354 93.342-41.354h44.898v-39.385h106.338v39.385h504.123v-39.385h106.338v39.385h47.262c50.412 0 61.046 2.757 77.588 20.48 21.662 22.843 20.874 9.452 20.874 389.12s0.788 366.277-20.874 389.12c-20.874 22.843-17.723 22.449-207.951 24.418l-176.049 1.969-40.96 38.597 93.342 93.342-11.028 10.634-10.634 11.028-50.412-49.625-50.018-49.625-21.662 7.089c-27.569 9.058-61.834 9.452-91.766 0.788l-23.237-6.302-47.655 47.655c-26.388 26.388-49.231 48.049-50.412 48.049s-6.302-4.332-11.422-9.846zM680.172 686.671l11.028-9.452v-576.591l-22.055-18.905h-532.086l-11.422 11.422-11.422 11.815 0.788 285.932 1.182 286.326 22.055 18.905h530.905l11.028-9.452zM875.914 690.609c36.234-14.966 42.929-65.772 11.815-92.554-11.422-10.24-16.935-12.209-33.477-12.209-25.6 0-40.96 9.058-51.2 30.326-23.237 47.655 23.237 95.311 72.862 74.437zM877.095 546.068c24.812-12.209 35.84-36.628 28.357-63.803-5.12-19.692-18.117-32.295-38.203-38.597-13.785-3.938-18.905-3.545-34.265 1.969-24.025 9.452-35.052 25.6-35.052 51.594 0 24.812 9.452 39.778 31.114 49.625 20.48 9.452 27.175 9.452 48.049-0.788zM909.785 318.031v-19.692h-110.277v39.385h110.277v-19.692zM909.785 247.138v-19.692h-110.277v39.385h110.277v-19.692zM909.785 172.308v-19.692h-110.277v39.385h110.277v-19.692zM909.785 101.415v-19.692h-110.277v39.385h110.277v-19.692z" />
<glyph unicode="&#xe614;" glyph-name="gbiconv1-20" d="M145.723 816.246v-53.169h-43.323c-35.84 0-46.474-1.575-59.077-7.877-19.298-9.846-30.326-25.206-35.446-49.625-2.757-12.603-3.938-122.486-3.151-322.56l1.182-303.262 9.846-17.329c6.695-11.815 15.754-20.48 27.175-26.782l17.329-9.058h911.36l17.329 9.058c10.634 5.908 20.48 14.966 25.994 24.812l9.058 15.36-1.182 322.954-0.788 322.954-9.058 12.997c-5.12 7.089-16.148 16.148-24.418 20.48-14.966 7.483-24.418 7.877-289.477 7.877h-273.723v106.338h-279.631v-53.169zM358.4 747.323v-55.138h-145.723v110.277h145.723v-55.138zM908.603 666.191c34.265-19.692 43.323-71.286 18.117-103.188-15.36-19.298-33.871-28.357-58.289-28.357-48.049 0.394-81.526 43.717-68.923 89.797 12.997 48.443 63.409 67.742 109.095 41.748zM458.831 618.929c39.385-10.24 75.618-31.508 108.702-64.591 80.345-79.557 96.492-200.074 40.566-301.292-26.388-48.049-90.585-96.886-149.268-114.609-32.295-9.846-101.612-9.846-133.908 0-67.348 20.086-126.425 69.317-154.782 128.788-20.48 42.535-25.994 67.742-25.994 113.822 0.394 68.135 25.206 126.818 74.831 176.049 39.385 39.385 79.951 58.289 147.298 69.711 16.542 2.757 67.348-1.575 92.554-7.877zM355.643 524.8c-48.049-12.997-80.738-39.778-102.006-83.102-46.868-94.129 7.089-200.862 111.852-222.523 64.591-13.391 136.271 23.631 166.991 86.252 12.209 24.418 12.997 28.751 12.997 67.742 0 36.628-1.182 44.111-10.634 63.803-20.48 44.111-64.985 79.557-112.64 89.403-26.782 5.514-40.96 5.12-66.56-1.575z" />
<glyph unicode="&#xe615;" glyph-name="gbiconv1-21" d="M176.159 944.307c-79.252-12.162-146.342-70.228-166.743-143.988-7.062-25.11-7.454-46.296-7.454-350.357s0.392-325.248 7.454-350.357c17.655-64.736 71.405-117.309 141.634-138.887 21.971-6.67 44.334-7.062 358.989-7.062s337.018 0.392 358.989 7.062c70.228 21.579 123.979 74.152 141.634 138.887 7.062 25.11 7.454 46.296 7.454 350.357s-0.392 325.248-7.454 350.357c-17.655 63.951-69.444 115.347-139.672 138.495-20.009 6.67-43.942 7.454-347.218 7.847-178.906 0.392-335.448-0.785-347.611-2.354zM907.868 822.29c9.808-7.847 10.201-9.024 10.201-52.966 0-60.42 0-60.42-60.42-60.42-61.597 0-62.774 1.177-64.343 56.497l-1.569 41.588 11.77 11.77c11.77 11.77 12.555 11.77 52.966 11.77 35.31 0 42.372-1.177 51.396-8.239zM521.024 749.315c-6.277-0.785-15.693-0.785-21.579 0-6.277 0.785-1.177 1.569 10.593 1.569s16.87-0.785 10.985-1.569zM468.058 744.215c-74.544-10.985-147.519-51.396-193.422-107.5-74.936-91.415-89.061-216.57-35.31-319.362 38.841-74.936 102.792-127.117 186.36-152.227 30.21-9.024 42.372-10.593 84.352-10.593s54.143 1.569 84.352 10.593c83.568 25.11 147.519 77.29 186.36 152.227 43.157 82.783 43.157 182.437 0 265.22-28.641 55.32-69.836 97.3-125.548 127.902-27.464 14.909-86.314 33.349-109.462 34.133-12.947 0.785-13.339 0.785-2.354 2.354 40.411 6.277 142.811-41.195 184.006-84.745l11.77-12.162h190.676l5.885-9.416c5.493-8.239 5.885-38.057 5.1-261.689l-1.177-252.665-10.985-21.971c-14.124-29.033-42.372-54.927-70.621-65.913-22.363-8.239-24.717-8.239-348.003-8.239s-325.64 0-348.003 8.239c-28.248 10.985-56.497 36.88-70.621 65.913l-10.985 21.971-1.177 252.665c-0.785 223.632-0.392 253.45 5.1 261.689l5.885 9.416h190.676l11.77 12.162c40.411 42.765 131.825 85.922 180.083 85.137 14.516 0 14.516-0.392-4.708-3.139zM602.63 694.388c80.429-30.21 138.495-91.022 163.212-169.882 12.947-41.98 12.947-107.108 0-149.088-24.325-78.86-82.391-139.28-163.212-169.882-30.602-11.77-34.133-12.555-92.592-12.555s-61.989 0.785-92.592 12.555c-80.821 30.602-138.887 91.022-163.212 169.882-12.947 41.98-12.947 107.108 0 149.088 23.148 73.759 81.214 137.71 150.657 165.174 42.765 16.87 58.066 19.225 112.993 18.048 47.473-1.177 56.104-2.746 84.745-13.339zM464.135 652.015c-76.113-16.478-140.457-78.075-160.074-153.011-28.641-110.247 46.296-226.771 161.643-251.096 49.042-10.593 94.946-4.316 141.634 18.44 32.956 16.086 72.975 55.32 90.238 87.884 43.157 82.391 28.641 174.59-38.449 240.895-51.789 51.396-123.586 72.582-194.992 56.889z" />
<glyph unicode="&#xe616;" glyph-name="gbiconv1-22" d="M540.357 951.729c-76.012-9.846-135.877-89.009-123.668-164.234 8.271-49.625 37.809-89.797 82.708-111.852 23.631-11.815 29.538-12.997 61.834-12.997 30.326 0 38.597 1.575 57.895 10.634 44.505 20.874 76.406 60.652 85.858 107.126 6.302 29.932 2.363 58.289-11.815 88.222-27.569 58.683-87.828 91.372-152.812 83.102zM219.766 947.003c-40.566-15.36-71.68-43.323-89.403-81.132-8.665-18.905-10.24-27.175-10.24-59.471 0.394-32.689 1.575-40.172 11.422-60.258 14.178-29.145 42.929-57.895 72.074-72.074 20.086-9.846 27.569-11.028 60.258-11.422 33.477 0 39.778 1.182 61.046 11.422 29.932 14.966 58.683 43.323 72.074 72.468 9.058 19.298 10.634 27.569 10.634 59.865 0 34.265-1.182 39.778-12.997 63.803-14.572 29.538-40.96 56.32-70.498 70.105-23.631 11.422-81.526 14.966-104.369 6.695zM792.418 655.951l-79.557-32.295 0.788-64.985 1.182-64.591 80.738-33.083c44.505-17.723 83.102-32.689 85.858-32.689s9.452 4.332 14.572 9.846l9.846 9.452v221.342l-9.846 9.452c-5.12 5.514-12.603 9.846-16.542 9.452-3.938 0-42.929-14.572-87.040-31.902zM149.662 509.046v-147.692l107.126-0.788 107.126-1.182 3.151-15.36c3.151-14.178 16.935-38.203 23.631-40.96 5.12-2.363 3.545-8.665-2.363-8.665-3.151 0-31.114-57.895-70.892-145.329-35.84-80.345-65.378-146.511-65.378-147.692 0-1.575 5.908-2.363 12.997-2.363 12.603 0 12.997 0.788 35.84 51.2l22.843 51.2h93.735v-165.415h27.569v165.809l91.766-2.363 22.055-50.412c22.055-50.018 22.055-50.018 35.052-50.018 11.028 0 12.997 1.182 11.028 7.089-1.575 3.545-30.326 70.105-64.591 147.298-54.745 124.455-63.015 140.603-70.498 140.997-11.422 0-11.422 1.969 0.788 14.966 5.514 5.908 11.815 17.723 14.178 26.388s5.12 18.117 5.908 20.874c1.182 3.545 22.843 4.726 92.16 4.726h90.585v295.385h-523.815v-147.692zM417.477 207.36v-78.375h-39.385c-21.662 0-39.385 1.575-39.385 3.151 0 2.757 11.422 28.751 58.289 131.938 7.089 15.36 14.178 25.994 16.542 24.418s3.938-31.508 3.938-81.132zM462.769 266.043c6.302-13.785 22.449-50.018 35.84-80.738l24.812-56.32h-78.375v80.738c0 44.505 1.575 80.738 3.545 80.738 1.575 0 8.271-11.028 14.178-24.418z" />
<glyph unicode="&#xe617;" glyph-name="gbiconv1-23" d="M476.948 950.154c-74.831-16.542-133.908-76.012-149.662-150.843-2.757-13.391-4.332-77.194-4.332-178.018v-157.538h385.969v157.538c0 99.643-1.575 164.628-4.332 178.018-21.268 102.4-128 172.898-227.643 150.843zM456.074 882.806c16.148-11.422 9.058-33.083-11.028-33.083-12.603 0-19.692 6.695-19.692 18.117 0 7.877 12.603 21.268 19.692 21.268 1.182 0 6.302-2.757 11.028-6.302zM526.966 882.806c16.148-11.422 9.058-33.083-11.028-33.083-12.603 0-19.692 6.695-19.692 18.117 0 7.877 12.603 21.268 19.692 21.268 1.182 0 6.302-2.757 11.028-6.302zM597.858 882.806c16.148-11.422 9.058-33.083-11.028-33.083-12.603 0-19.692 6.695-19.692 18.117 0 7.877 12.603 21.268 19.692 21.268 1.182 0 6.302-2.757 11.028-6.302zM422.203 811.52c14.178-12.603 6.695-32.689-12.603-32.689-20.086 0-27.175 21.662-11.028 33.083 11.028 7.877 14.572 7.877 23.631-0.394zM491.52 811.914c16.148-11.422 9.058-33.083-11.028-33.083-12.603 0-19.692 6.695-19.692 18.117 0 7.877 12.603 21.268 19.692 21.268 1.182 0 6.302-2.757 11.028-6.302zM562.412 811.914c16.148-11.422 9.058-33.083-11.028-33.083-12.603 0-19.692 6.695-19.692 18.117 0 7.877 12.603 21.268 19.692 21.268 1.182 0 6.302-2.757 11.028-6.302zM633.305 811.914c16.148-11.422 9.058-33.083-11.028-33.083-18.905 0-26.388 17.723-12.997 32.295 7.877 8.665 12.603 9.058 24.025 0.788zM387.545 741.022c3.545-3.151 6.302-10.24 6.302-14.966 0-21.268-30.326-24.812-37.415-4.726-3.151 9.452-2.363 12.209 5.514 18.511 11.028 9.058 17.723 9.452 25.6 1.182zM458.437 741.022c7.483-7.089 8.271-21.662 1.575-28.357-2.757-2.757-9.452-4.726-14.966-4.726-18.905 0-26.388 17.723-12.997 32.295 7.877 8.665 18.117 9.058 26.388 0.788zM528.542 740.628c14.178-12.603 6.695-32.689-12.603-32.689-18.905 0-26.388 17.723-12.997 32.295 7.877 8.665 16.148 9.058 25.6 0.394zM599.434 740.628c14.178-12.603 6.695-32.689-12.603-32.689-5.514 0-12.209 1.969-14.966 4.726-10.634 10.634-1.182 34.658 13.785 34.658 3.545 0 9.846-2.757 13.785-6.695zM671.508 739.446c5.908-6.302 6.695-10.24 3.545-18.905-6.695-19.692-37.022-15.36-37.022 5.514 0 19.298 20.48 27.569 33.477 13.391zM387.545 670.129c7.877-7.483 8.271-22.843 0.788-28.751-9.846-8.271-27.175-3.545-31.508 8.271-6.695 19.692 16.542 35.052 30.72 20.48zM458.437 670.129c7.877-7.483 8.271-22.843 0.788-28.751-9.846-8.271-27.175-3.545-31.508 8.271-6.695 19.692 16.542 35.052 30.72 20.48zM529.329 670.129c7.483-7.089 8.271-21.662 1.575-28.357-2.757-2.757-9.452-4.726-14.966-4.726s-12.209 1.969-14.966 4.726c-11.028 11.028-0.788 34.658 14.966 34.658 3.938 0 10.24-2.757 13.391-6.302zM600.615 668.554c5.908-6.302 6.695-10.24 3.545-18.905-6.695-19.692-37.022-15.36-37.022 5.514 0 19.298 20.48 27.569 33.477 13.391zM671.508 668.554c5.908-6.302 6.695-10.24 3.545-18.905-6.695-19.692-37.022-15.36-37.022 5.514 0 19.298 20.48 27.569 33.477 13.391zM386.363 601.6c8.665-4.726 10.24-23.237 2.757-30.72s-25.994-5.908-30.72 2.757c-5.514 10.634-5.12 18.511 2.363 25.6 7.089 7.483 14.966 7.877 25.6 2.363zM458.437 599.237c7.483-7.089 8.271-21.662 1.575-28.357-12.209-12.209-34.658-1.575-34.658 16.542 0 7.877 11.028 18.117 19.692 18.117 3.938 0 10.24-2.757 13.391-6.302zM529.329 599.237c7.483-7.089 8.271-21.662 1.575-28.357-2.757-2.757-9.452-4.726-14.966-4.726s-12.209 1.969-14.966 4.726c-11.028 11.028-0.788 34.658 14.966 34.658 3.938 0 10.24-2.757 13.391-6.302zM600.222 599.237c7.483-7.089 7.877-14.966 2.363-25.6-4.726-8.665-23.237-10.24-30.72-2.757-11.028 11.028-0.788 34.658 14.966 34.658 3.938 0 10.24-2.757 13.391-6.302zM671.114 599.237c12.603-12.209 4.332-33.083-12.603-33.083-13.785 0-20.48 6.695-20.48 20.48 0 16.935 20.874 25.206 33.083 12.603zM386.363 530.708c8.665-4.726 10.24-23.237 2.757-30.72-11.028-11.028-34.658-0.788-34.658 14.966 0 8.665 10.24 19.692 18.117 19.692 3.545 0 9.452-1.969 13.785-3.938zM458.437 528.345c7.483-7.089 8.271-21.662 1.575-28.357-11.028-11.028-34.658-0.788-34.658 14.966 0 9.452 10.24 19.692 19.692 19.692 3.938 0 10.24-2.757 13.391-6.302zM529.329 528.345c12.603-12.603 4.332-33.083-13.391-33.083-11.422 0-19.692 8.665-19.692 21.268 0 7.877 11.028 18.117 19.692 18.117 3.938 0 10.24-2.757 13.391-6.302zM600.222 528.345c3.545-3.151 6.302-9.452 6.302-13.391 0-15.754-23.631-25.994-34.658-14.966s-0.788 34.658 14.966 34.658c3.938 0 10.24-2.757 13.391-6.302zM671.114 528.345c12.603-12.209 3.151-33.083-14.966-33.083-11.815 0-18.117 7.089-18.117 20.48 0 16.935 20.874 25.206 33.083 12.603zM253.243 376.32c3.545-83.495 27.175-137.846 81.92-190.228 32.295-30.72 78.375-56.714 115.791-65.378 11.028-2.757 22.055-5.12 24.812-5.908 3.545-1.182 4.726-15.36 4.726-55.532v-54.745l-35.052-4.726c-63.803-8.665-126.425-33.871-138.24-55.532l-4.332-8.271h430.474l-5.514 8.665c-13.391 20.874-52.775 38.597-111.458 50.806-19.298 3.938-42.929 7.483-51.988 7.483h-16.935v110.277l11.028 2.363c76.012 16.148 136.271 56.32 177.231 117.366 27.963 41.748 40.566 83.495 43.323 143.36l1.969 48.049h-31.508l-1.969-48.443c-1.969-37.809-4.332-54.351-12.209-77.194-32.689-93.342-118.154-154.782-217.403-155.569-66.954-0.394-120.123 20.874-165.415 66.56-46.868 46.868-64.197 89.403-67.742 166.597l-2.363 48.049h-31.508l2.363-48.049zM323.742 380.258c2.363-50.018 10.634-77.588 33.477-112.64 79.557-120.517 265.846-106.732 330.043 24.418 16.148 32.689 21.662 58.683 21.662 101.218v31.114h-387.151l1.969-44.111z" />
<glyph unicode="&#xe618;" glyph-name="gbiconv1-24" d="M476.948 950.154c-74.831-16.542-133.908-76.012-149.662-150.843-2.757-13.391-4.332-77.194-4.332-178.018v-157.538h385.969v157.538c0 99.643-1.575 164.628-4.332 178.018-21.268 102.4-128 172.898-227.643 150.843zM253.243 376.32c3.545-83.495 27.175-137.846 81.92-190.228 32.295-30.72 78.375-56.714 115.791-65.378 11.028-2.757 22.055-5.12 24.812-5.908 3.545-1.182 4.726-15.36 4.726-55.532v-54.745l-35.052-4.726c-63.803-8.665-126.425-33.871-138.24-55.532l-4.332-8.271h430.474l-5.514 8.665c-13.391 20.874-52.775 38.597-111.458 50.806-19.298 3.938-42.929 7.483-51.988 7.483h-16.935v110.277l11.028 2.363c76.012 16.148 136.271 56.32 177.231 117.366 27.963 41.748 40.566 83.495 43.323 143.36l1.969 48.049h-31.508l-1.969-48.443c-1.969-37.809-4.332-54.351-12.209-77.194-32.689-93.342-118.154-154.782-217.403-155.569-66.954-0.394-120.123 20.874-165.415 66.56-46.868 46.868-64.197 89.403-67.742 166.597l-2.363 48.049h-31.508l2.363-48.049zM323.742 380.258c2.363-50.018 10.634-77.588 33.477-112.64 79.557-120.517 265.846-106.732 330.043 24.418 16.148 32.689 21.662 58.683 21.662 101.218v31.114h-387.151l1.969-44.111z" />
<glyph unicode="&#xe619;" glyph-name="gbiconv1-25" d="M456.862 950.942c-86.252-29.145-133.908-102.006-133.908-204.406v-26.782h161.477v-39.385h-161.477v-31.508h161.477v-39.385h-161.477v-31.508h161.477v-39.385h-161.477v-31.508h161.477v-39.385h-161.477v-44.111c0-59.077 5.514-89.797 22.055-124.062 23.631-49.625 74.831-90.978 127.606-103.188 103.188-23.631 208.345 44.111 230.4 148.086 3.151 14.966 5.908 48.443 5.908 75.225v48.049h-157.538v39.385h157.538v31.508h-157.538v39.385h157.538v31.508h-157.538v39.385h157.538v31.508h-157.538v39.385h158.72l-2.363 44.505c-3.545 67.742-21.268 109.489-63.015 146.905-50.806 45.292-125.243 61.44-187.865 39.778zM253.637 386.166c3.151-55.138 9.846-84.283 28.357-121.305 33.083-67.742 97.28-119.335 172.111-138.24l26.388-6.302v-107.52l-40.566-6.695c-49.231-7.877-85.071-19.298-109.883-35.052-15.754-10.24-25.6-21.662-22.055-25.6 1.575-1.182 192.591-2.363 323.742-1.969l101.612 0.394-5.514 8.665c-15.36 23.631-75.618 46.474-145.329 55.532l-35.052 4.332v107.52l26.782 6.302c41.354 10.24 86.252 34.658 117.76 63.409 59.865 55.532 87.434 122.88 87.828 214.252v28.357h-34.658l-1.575-50.018c-2.363-59.077-10.634-89.797-34.265-126.425-80.738-124.455-252.455-143.36-356.825-38.597-46.080 46.474-63.015 89.403-67.742 168.96l-2.363 46.080h-31.508l2.757-46.080z" />
<glyph unicode="&#xe61a;" glyph-name="gbiconv1-26" d="M447.803 894.622c-81.526-14.572-150.055-50.412-209.92-109.883-36.628-36.234-59.077-68.135-80.738-113.822-28.751-61.834-38.991-118.548-38.991-221.735v-59.471l-20.48-11.815c-59.077-33.477-90.191-93.735-90.191-176.049 0-21.662 1.969-48.049 4.332-59.077 19.298-78.375 80.738-133.514 163.446-145.723l17.723-2.757v274.117c0 234.732 0.788 278.843 6.302 304.443 20.48 99.643 85.858 181.957 178.806 224.886 50.018 23.237 79.951 29.932 137.846 29.932s87.828-6.695 137.846-29.932c92.948-42.929 158.326-125.243 178.806-224.886 5.514-25.6 6.302-69.711 6.302-304.443v-274.117l17.723 2.757c81.132 11.815 141.391 64.197 161.477 140.209 7.877 28.357 7.483 98.068 0 127.606-12.997 49.625-42.535 89.403-83.495 113.034l-20.874 11.815v59.471c0 103.188-10.24 159.902-38.991 221.735-38.991 82.708-106.732 151.631-187.471 190.622-73.649 35.052-161.083 47.262-239.458 33.083zM232.369 201.846v-206.769h35.446v413.538h-35.446v-206.769zM764.062 201.846v-206.769h35.446v413.538h-35.446v-206.769z" />
<glyph unicode="&#xe61b;" glyph-name="gbiconv1-27" d="M419.052 883.988c-14.178-12.603-14.178-32.689 0.394-44.898 11.422-10.24 18.511-11.028 30.72-4.332 24.025 12.603 25.206 40.566 2.363 52.382-14.966 7.877-20.874 7.483-33.477-3.151zM500.185 832.788c0-1.182 50.412-29.145 112.246-62.622 61.44-33.083 112.246-61.44 112.246-63.015 0-1.969-152.025-3.151-338.314-3.151h-337.92l-12.997-9.058c-7.483-4.726-16.935-14.966-21.268-22.449-8.271-13.391-8.271-18.511-8.271-291.446v-277.662l9.452-15.36c13.785-22.055 33.477-29.932 78.375-29.932h36.234v-20.874c0-15.754 1.969-23.237 7.877-29.538 11.028-11.422 21.662-13.785 61.046-12.209 41.354 1.969 48.443 7.483 51.988 40.172l2.363 22.449h525.391l2.363-22.449c3.545-32.689 10.634-38.203 51.988-40.172 39.385-1.575 50.018 0.788 61.046 12.209 5.908 6.302 7.877 13.785 7.877 29.538v20.874h36.628c43.323 0 64.197 7.877 76.8 28.357 8.665 13.785 8.665 14.178 8.665 294.991 0 273.723-0.394 281.6-7.877 294.203-15.754 25.994-25.206 28.357-105.551 28.357h-72.074l-164.234 63.409c-90.191 35.052-166.597 64.591-168.96 65.378-2.757 1.182-5.12 1.182-5.12 0zM393.452 606.72c61.046-15.754 118.548-63.409 145.723-120.517 18.511-38.597 24.025-63.409 24.025-106.338 0-65.772-20.48-115.003-68.529-162.265-48.837-48.837-97.28-68.923-163.84-68.923-67.742 0-120.517 22.055-167.778 69.317-89.009 88.615-90.585 231.582-3.545 323.742 60.652 64.591 145.723 88.222 233.945 64.985zM937.354 568.123v-49.231h-82.708l-14.178 28.357-14.572 28.751-14.178-28.751-13.785-28.357h-175.655v98.462h315.077v-49.231zM724.283 263.286c48.837-35.052 24.025-114.609-35.84-114.609-22.449 0-37.809 6.695-51.594 23.631-25.994 30.326-14.178 80.345 22.843 96.886 16.935 7.877 49.231 5.12 64.591-5.908zM900.726 268.406c31.114-14.966 44.505-53.957 29.145-85.071-11.815-23.631-24.812-32.295-53.563-33.871-19.692-1.182-25.994 0-37.022 7.877-22.055 14.966-29.538 28.357-29.538 51.594 0 25.994 10.24 44.898 31.508 56.714 18.117 10.634 40.566 11.422 59.471 2.757zM317.834 579.151c-1.575-1.182-2.757-7.483-2.757-13.785 0-9.846 1.182-11.028 13.785-11.028 12.997 0 13.785 0.788 13.785 13.785 0 12.603-1.182 13.785-11.028 13.785-6.302 0-12.603-1.182-13.785-2.757zM267.028 569.305c-14.966-5.12-14.178-14.966 0.788-14.966 9.846 0 11.815 1.575 11.815 9.846 0 5.514-0.394 9.846-0.788 9.452-0.788 0-5.908-1.969-11.815-4.332zM378.092 564.185c0-8.665 1.575-9.846 13.785-9.846 17.723 0 18.511 9.452 1.575 15.36-16.148 5.514-15.36 5.908-15.36-5.514zM192.985 505.108c0-12.997 0.788-13.785 13.785-13.785s13.785 0.788 13.785 13.785c0 12.997-0.788 13.785-13.785 13.785s-13.785-0.788-13.785-13.785zM256 505.108c0-12.603 0.788-13.785 11.815-13.785s11.815 1.182 11.815 13.785c0 12.603-0.788 13.785-11.815 13.785s-11.815-1.182-11.815-13.785zM315.077 505.108c0-12.997 0.788-13.785 13.785-13.785s13.785 0.788 13.785 13.785c0 12.997-0.788 13.785-13.785 13.785s-13.785-0.788-13.785-13.785zM378.092 505.108c0-12.997 0.788-13.785 13.785-13.785s13.785 0.788 13.785 13.785c0 12.997-0.788 13.785-13.785 13.785s-13.785-0.788-13.785-13.785zM441.108 505.108c0-12.997 0.788-13.785 13.785-13.785s13.785 0.788 13.785 13.785c0 12.997-0.788 13.785-13.785 13.785s-13.785-0.788-13.785-13.785zM141.785 445.637c-5.908-14.966-5.12-17.329 5.908-17.329 8.665 0 9.846 1.575 9.846 13.785 0 16.542-9.846 18.905-15.754 3.545zM192.985 442.092c0-12.997 0.788-13.785 13.785-13.785s13.785 0.788 13.785 13.785c0 12.997-0.788 13.785-13.785 13.785s-13.785-0.788-13.785-13.785zM256 442.092c0-12.603 0.788-13.785 11.815-13.785s11.815 1.182 11.815 13.785c0 12.603-0.788 13.785-11.815 13.785s-11.815-1.182-11.815-13.785zM315.077 442.092c0-12.997 0.788-13.785 13.785-13.785s13.785 0.788 13.785 13.785c0 12.997-0.788 13.785-13.785 13.785s-13.785-0.788-13.785-13.785zM378.092 442.092c0-12.997 0.788-13.785 13.785-13.785s13.785 0.788 13.785 13.785c0 12.997-0.788 13.785-13.785 13.785s-13.785-0.788-13.785-13.785zM441.108 442.092c0-12.997 0.788-13.785 13.785-13.785s13.785 0.788 13.785 13.785c0 12.997-0.788 13.785-13.785 13.785s-13.785-0.788-13.785-13.785zM504.123 442.092c0-11.815 1.182-13.785 9.452-13.785 9.058 0 9.452 0.788 5.908 12.603-1.969 7.089-3.545 13.391-3.545 13.785 0 0.788-2.757 1.182-5.908 1.182-3.938 0-5.908-4.332-5.908-13.785zM129.969 383.015c0-12.997 0.788-13.785 13.785-13.785s13.785 0.788 13.785 13.785c0 12.997-0.788 13.785-13.785 13.785s-13.785-0.788-13.785-13.785zM192.985 383.015c0-12.997 0.788-13.785 13.785-13.785s13.785 0.788 13.785 13.785c0 12.997-0.788 13.785-13.785 13.785s-13.785-0.788-13.785-13.785zM256 383.015c0-12.603 0.788-13.785 11.815-13.785s11.815 1.182 11.815 13.785c0 12.603-0.788 13.785-11.815 13.785s-11.815-1.182-11.815-13.785zM315.077 383.015c0-12.997 0.788-13.785 13.785-13.785s13.785 0.788 13.785 13.785c0 12.997-0.788 13.785-13.785 13.785s-13.785-0.788-13.785-13.785zM378.092 383.015c0-12.997 0.788-13.785 13.785-13.785s13.785 0.788 13.785 13.785c0 12.997-0.788 13.785-13.785 13.785s-13.785-0.788-13.785-13.785zM441.108 383.015c0-12.997 0.788-13.785 13.785-13.785s13.785 0.788 13.785 13.785c0 12.997-0.788 13.785-13.785 13.785s-13.785-0.788-13.785-13.785zM504.123 383.015c0-12.603 0.788-13.785 11.815-13.785s11.815 1.182 11.815 13.785c0 12.603-0.788 13.785-11.815 13.785s-11.815-1.182-11.815-13.785zM137.846 329.846c0-1.969 1.969-8.271 4.726-13.785 6.695-14.572 14.966-12.603 14.966 3.938 0 12.209-1.182 13.785-9.846 13.785-5.514 0-9.846-1.575-9.846-3.938zM192.985 320c0-12.997 0.788-13.785 13.785-13.785s13.785 0.788 13.785 13.785c0 12.997-0.788 13.785-13.785 13.785s-13.785-0.788-13.785-13.785zM256 320c0-12.603 0.788-13.785 11.815-13.785s11.815 1.182 11.815 13.785c0 12.603-0.788 13.785-11.815 13.785s-11.815-1.182-11.815-13.785zM315.077 320c0-12.997 0.788-13.785 13.785-13.785s13.785 0.788 13.785 13.785c0 12.997-0.788 13.785-13.785 13.785s-13.785-0.788-13.785-13.785zM378.092 320c0-12.997 0.788-13.785 13.785-13.785s13.785 0.788 13.785 13.785c0 12.997-0.788 13.785-13.785 13.785s-13.785-0.788-13.785-13.785zM441.108 320c0-12.997 0.788-13.785 13.785-13.785s13.785 0.788 13.785 13.785c0 12.997-0.788 13.785-13.785 13.785s-13.785-0.788-13.785-13.785zM504.123 320c0-8.665 1.969-13.785 5.12-13.785s7.089 6.302 9.452 13.785c4.332 12.997 3.938 13.785-5.12 13.785-8.271 0-9.452-1.969-9.452-13.785zM192.985 256.985c0-12.997 0.788-13.785 13.785-13.785s13.785 0.788 13.785 13.785c0 12.997-0.788 13.785-13.785 13.785s-13.785-0.788-13.785-13.785zM256 256.985c0-12.603 0.788-13.785 11.815-13.785s11.815 1.182 11.815 13.785c0 12.603-0.788 13.785-11.815 13.785s-11.815-1.182-11.815-13.785zM315.077 256.985c0-12.997 0.788-13.785 13.785-13.785s13.785 0.788 13.785 13.785c0 12.997-0.788 13.785-13.785 13.785s-13.785-0.788-13.785-13.785zM378.092 256.985c0-12.997 0.788-13.785 13.785-13.785s13.785 0.788 13.785 13.785c0 12.997-0.788 13.785-13.785 13.785s-13.785-0.788-13.785-13.785zM441.108 256.985c0-12.997 0.788-13.785 13.785-13.785s13.785 0.788 13.785 13.785c0 12.997-0.788 13.785-13.785 13.785s-13.785-0.788-13.785-13.785zM256 202.24c0-2.757 3.938-6.302 9.058-7.877 13.391-3.545 14.572-3.151 14.572 5.514 0 6.302-2.757 7.877-11.815 7.877-7.483 0-11.815-1.969-11.815-5.514zM315.077 195.938c0-11.028 1.182-11.815 13.785-11.815s13.785 0.788 13.785 11.815c0 11.028-1.182 11.815-13.785 11.815s-13.785-0.788-13.785-11.815zM378.092 198.302c0-9.058 0.788-9.452 13.785-5.12 7.483 2.363 13.785 6.302 13.785 9.452s-5.12 5.12-13.785 5.12c-11.815 0-13.785-1.182-13.785-9.452z" />
<glyph unicode="&#xe61c;" glyph-name="gbiconv1-28" d="M242.215 950.154c-114.609-24.812-207.951-119.729-232.369-236.308-18.511-88.222 8.665-190.622 68.923-259.545l12.997-14.966 213.858 213.858c206.375 206.375 213.858 214.252 207.163 221.342-24.418 27.175-87.434 61.046-137.846 74.043-34.658 8.665-96.492 9.452-132.726 1.575zM363.126 592.542l-202.043-202.437 26.782-12.209c53.563-24.418 116.185-33.477 169.748-24.418l28.357 4.726 105.157 104.763c101.612 102.006 104.763 105.945 109.883 126.818 7.483 29.538 6.695 89.009-0.788 123.274-6.302 27.963-27.963 81.526-32.689 81.526-1.182 0-93.342-90.978-204.406-202.043zM548.628 407.828l-103.188-103.582 172.898-143.754c95.311-79.163 179.988-147.298 188.258-151.631 12.209-6.695 21.662-7.877 57.895-7.483l43.323 0.788 33.477-31.114 33.477-30.72 23.631 23.237 23.631 23.631-32.689 32.689-32.295 32.689-1.182 42.929c-0.788 30.72-3.151 46.868-7.483 55.138-7.089 12.603-289.083 357.612-293.809 359.582-1.575 0.394-49.231-45.686-105.945-102.4z" />
<glyph unicode="&#xe61d;" glyph-name="gbiconv1-29" d="M670.72 860.751c-4.332-5.12-15.36-23.631-24.812-41.748-44.505-86.252-113.428-105.945-248.123-70.498-65.772 17.329-89.797 20.086-124.062 14.572-39.778-6.302-66.56-20.874-98.855-52.775-36.234-36.234-55.926-74.437-59.471-115.791l-2.363-28.357h-25.994c-40.96-0.394-73.649-20.48-82.314-50.412-1.575-5.908-2.757-107.126-2.757-225.28v-214.646l10.634-17.723c5.908-10.634 16.542-21.268 25.994-26.782l15.754-8.665h455.286c378.092 0 457.649 0.788 468.283 5.514 15.36 6.302 32.295 24.025 37.809 38.991 2.757 7.483 4.332 84.283 4.332 227.643 0 204.8-0.394 217.403-7.483 231.188-9.058 18.117-18.117 26.388-37.022 34.265-12.603 5.12-63.015 5.908-410.782 5.908h-396.209l1.575 22.843c2.757 40.566 34.658 87.040 74.437 109.095 29.932 16.542 63.803 15.754 147.298-3.545 104.763-24.418 149.662-23.237 207.557 5.908 66.166 33.477 131.151 136.271 102.4 162.265-10.24 9.058-21.662 8.271-31.114-1.969zM964.529 530.314c24.418-8.665 24.025-5.12 24.025-239.852v-213.465l-22.843-22.843h-907.422l-22.843 22.843v215.434c0 146.511 1.182 217.797 4.332 222.917 10.24 19.298-0.788 18.905 470.646 19.298 313.502 0 445.046-1.182 454.105-4.332zM110.277 420.431v-35.446h70.892v70.892h-70.892v-35.446zM259.938 420.431v-35.446h66.954v70.892h-66.954v-35.446zM405.662 420.431v-35.446h66.954v70.892h-66.954v-35.446zM547.446 420.431v-35.446h-70.892v-70.892h70.892v70.892h70.892v70.892h-70.892v-35.446zM697.108 420.431v-35.446h70.892v-70.892h70.892v70.892h-70.892v70.892h-70.892v-35.446zM842.831 420.431v-35.446h66.954v70.892h-66.954v-35.446zM185.108 349.538v-35.446h66.954v70.892h-66.954v-35.446zM330.831 349.538v-35.446h70.892v70.892h-70.892v-35.446zM622.277 349.538v-35.446h70.892v70.892h-70.892v-35.446zM110.277 276.677v-33.477h70.892v66.954h-70.892v-33.477zM259.938 276.677v-33.477h66.954v66.954h-66.954v-33.477zM405.662 276.677v-33.477h66.954v66.954h-66.954v-33.477zM547.446 276.677v-33.477h70.892v66.954h-70.892v-33.477zM697.108 276.677v-33.477h70.892v66.954h-70.892v-33.477zM842.831 276.677v-33.477h66.954v66.954h-66.954v-33.477zM256 164.431v-35.446h512v70.892h-512v-35.446z" />
<glyph unicode="&#xe61e;" glyph-name="gbiconv1-30" d="M721.92 931.643c-4.726-5.12-15.36-23.237-24.025-40.566-20.874-41.748-42.535-65.772-72.862-80.738-48.049-23.237-105.551-23.237-189.834 0-74.831 20.874-115.397 24.418-156.751 13.785-37.022-9.452-61.834-24.812-92.16-55.532-37.022-38.203-54.745-72.862-61.44-120.517l-4.332-34.658h-31.508c-38.991 0-59.471-10.24-76.012-38.597l-11.028-18.511v-547.446l8.665-16.542c10.634-19.692 28.751-34.265 50.412-40.172 22.055-5.908 879.852-5.908 901.908 0 21.662 5.908 39.778 20.48 50.412 40.172l8.665 16.542v547.446l-11.028 18.511c-6.695 11.422-17.329 22.449-27.963 28.751l-16.935 9.846h-784.935v12.997c0 17.329 10.634 52.775 20.874 69.711 14.178 23.237 42.929 51.594 63.803 62.228 29.538 15.754 75.618 14.572 153.6-4.332 125.243-30.326 178.412-26.782 244.972 16.542 78.375 50.806 132.332 169.748 76.406 169.748-6.302 0-14.178-3.938-18.905-8.665zM972.406 567.729l12.209-10.24v-273.723c0-188.258-1.182-276.086-4.332-281.6-10.24-19.298-0.394-18.905-465.132-18.905-286.72 0-439.532 1.575-448.985 3.938-28.357 7.877-26.782-9.058-26.782 295.778v274.511l24.418 20.48h896.394l12.209-10.24zM118.154 457.846v-37.415h78.769v74.831h-78.769v-37.415zM236.308 457.846v-37.415h74.831v74.831h-74.831v-37.415zM354.462 457.846v-37.415h78.769v74.831h-78.769v-37.415zM472.615 457.846v-37.415h78.769v74.831h-78.769v-37.415zM594.708 457.846v-37.415h74.831v74.831h-74.831v-37.415zM712.862 457.846v-37.415h74.831v74.831h-74.831v-37.415zM831.015 457.846v-37.415h74.831v74.831h-74.831v-37.415zM118.154 339.692v-37.415h236.308v74.831h-236.308v-37.415zM393.846 339.692v-37.415h78.769v74.831h-78.769v-37.415zM512 339.692v-37.415h78.769v74.831h-78.769v-37.415zM634.092 339.692v-37.415h70.892v74.831h-70.892v-37.415zM748.308 339.692v-37.415h157.538v74.831h-157.538v-37.415zM122.092 221.538v-37.415h153.6v74.831h-153.6v-37.415zM315.077 221.538v-37.415h78.769v74.831h-78.769v-37.415zM433.231 221.538v-37.415h78.769v74.831h-78.769v-37.415zM555.323 221.538v-37.415h70.892v74.831h-70.892v-37.415zM673.477 221.538v-37.415h232.369v74.831h-232.369v-37.415zM118.154 103.385v-37.415h78.769v74.831h-78.769v-37.415zM236.308 103.385v-37.415h78.769v74.831h-78.769v-37.415zM358.4 103.385v-37.415h311.138v74.831h-311.138v-37.415zM708.923 103.385v-37.415h78.769v74.831h-78.769v-37.415zM831.015 103.385v-37.415h70.892v74.831h-70.892v-37.415z" />
<glyph unicode="&#xe61f;" glyph-name="gbiconv1-31" d="M45.292 877.686c-21.662-9.846-35.84-27.569-40.96-51.594-5.908-27.963-5.908-728.222 0-756.185 5.12-24.025 19.298-41.748 40.96-51.594 14.966-7.089 37.415-7.483 466.708-7.483s451.742 0.394 466.708 7.483c21.662 9.846 35.84 27.569 40.96 51.594 5.908 27.963 5.908 728.222 0 756.185-5.12 24.025-19.298 41.748-40.96 51.594-14.966 7.089-37.415 7.483-466.708 7.483s-451.742-0.394-466.708-7.483zM153.994 822.548c21.268-21.268 13.391-55.138-14.966-63.015-16.542-4.726-37.415 2.363-44.111 14.572-13.785 25.994 4.726 59.865 33.083 59.865 10.634 0 17.329-3.151 25.994-11.422zM264.271 822.548c30.326-30.326-2.363-77.982-42.142-61.44-15.754 6.302-21.268 16.148-21.268 36.628 0 12.997 2.363 17.723 12.209 25.994 16.935 14.178 35.84 13.785 51.2-1.182zM367.458 829.637c12.603-5.514 20.086-20.086 19.692-37.415-0.394-16.148-6.695-24.418-23.631-31.508-18.511-7.877-41.354 0.788-48.443 18.511-14.572 34.265 18.511 65.772 52.382 50.412zM953.108 794.585v-19.692h-515.938v39.385h515.938v-19.692zM953.108 392.862v-311.138h-882.215v622.277h882.215v-311.138z" />
<glyph unicode="&#xe620;" glyph-name="gbiconv1-32" d="M55.532 896.591c-17.329-7.089-32.295-20.086-40.96-36.234l-8.665-16.542-1.182-269.785c-0.788-180.775 0.394-275.692 3.151-289.083 5.12-24.025 19.298-43.323 39.385-53.563 14.966-7.877 24.025-7.877 468.677-7.877s453.711 0 468.677 7.877c8.271 4.332 20.086 14.178 26.388 22.449l11.028 14.178 1.182 289.083c0.788 283.963 0.788 289.083-7.089 304.443-4.332 8.665-15.36 20.48-24.418 26.388l-16.542 11.028-454.892 0.788c-280.418 0.394-458.831-0.788-464.738-3.151zM953.108 619.323v-210.708h-874.338v421.415h874.338v-210.708zM537.6 344.418c7.089-5.908 11.028-14.178 12.603-25.206 1.969-15.36 0.788-18.117-11.815-30.72-15.36-15.36-27.569-17.329-46.080-7.877-14.572 7.483-19.692 16.935-19.692 36.628 0 22.055 14.572 36.234 37.809 36.234 11.815 0 20.086-2.757 27.175-9.058zM460.8 76.603v-28.751l-57.108-9.058-57.108-9.452v-34.265h334.769v15.36c0 18.117 4.726 15.754-61.834 28.357l-48.443 9.058v57.502h-110.277v-28.751z" />
<glyph unicode="&#xe621;" glyph-name="gbiconv1-33" d="M526.966 955.668c-35.052-4.726-64.591-20.874-93.735-50.806-29.932-30.72-48.443-60.652-82.708-135.877-49.231-106.732-76.012-135.483-131.545-139.028-46.868-2.757-73.649 14.178-95.705 60.652-12.997 27.175-21.662 35.052-32.295 29.145-19.692-10.24-3.151-61.834 28.751-89.797 62.228-54.351 139.815-50.412 199.286 10.634 27.175 27.963 46.868 61.44 67.348 114.609 35.446 90.191 65.378 132.332 108.702 152.812 30.72 14.178 77.194 14.966 102.4 1.575 27.175-14.178 44.505-43.717 44.505-76.012v-15.36h40.566l-2.363 22.843c-3.938 36.628-13.785 59.077-35.84 81.92-15.754 16.148-24.812 21.662-41.748 26.388-29.538 8.271-49.231 9.846-75.618 6.302zM532.874 786.314c-52.775-8.665-104.369-41.354-131.545-83.102-25.994-40.566-31.902-65.378-34.265-145.723l-1.575-70.105h205.588v22.843c0.394 39.385 20.874 68.923 52.775 75.225l12.209 2.757 1.182 101.218 0.788 101.218-42.142-0.394c-23.631-0.394-51.594-1.969-63.015-3.938zM678.203 689.428l1.182-101.218 12.209-2.757c31.902-6.302 52.382-35.84 52.775-75.225v-22.843h205.588l-1.575 70.105c-1.575 56.32-3.545 74.831-10.24 95.311-16.542 50.412-49.625 89.009-96.492 112.246-36.234 17.723-73.255 25.6-124.062 25.6h-40.172l0.788-101.218zM634.486 543.311c-24.025-12.997-27.963-26.388-27.963-92.554s3.938-80.738 24.418-93.342c7.089-4.332 19.692-7.877 28.357-7.877 12.209 0 17.723 2.757 30.326 15.36l15.36 15.36v66.166c0 73.649-1.969 80.738-23.237 94.917-16.148 11.028-29.538 11.422-47.262 1.969zM367.065 275.889c1.575-166.597 1.969-173.292 10.24-195.742 24.812-66.954 72.468-113.428 136.665-133.514 25.994-8.271 34.658-8.665 145.723-8.665 117.366 0 118.154 0 146.117 10.24 72.862 26.782 122.092 82.314 137.452 155.175 4.332 21.662 5.908 61.44 5.908 186.289v158.326h-204.8v-39.385c0-73.649-22.055-98.068-87.434-98.462-35.446 0-47.655 3.938-65.378 20.874-16.542 15.754-20.48 31.508-20.48 78.769v38.203h-205.194l1.182-172.111z" />
<glyph unicode="&#xe622;" glyph-name="gbiconv1-34" d="M3.938 444.062v-378.092h1020.062v756.185h-1020.062v-378.092zM169.354 595.692v-198.892h35.446v-303.262h-169.354v701.046h133.908v-198.892zM370.215 595.692v-198.892h31.508v-303.262h-169.354v303.262h35.446v397.785h102.4v-198.892zM567.138 595.692v-198.892h31.508v-303.262h-165.415v303.262h31.508v397.785h102.4v-198.892zM764.062 595.692v-198.892h35.446v-303.262h-169.354v303.262h31.508v397.785h102.4v-198.892zM996.431 444.062v-350.523h-169.354v303.262h35.446v397.785h133.908v-350.523z" />
<glyph unicode="&#xe623;" glyph-name="gbiconv1-35" d="M261.514 951.729c-6.695-1.969-15.36-7.089-19.692-11.815-6.695-7.483-7.483-16.148-8.665-108.308l-1.182-100.037h567.926l-1.182 100.037c-1.182 111.852-1.575 112.64-30.326 120.517-17.723 4.726-489.551 4.726-506.88-0.394zM374.154 685.883c-129.575-10.634-183.926-18.511-235.126-35.052-17.723-5.514-37.809-14.572-44.505-20.086l-11.815-10.24v-397.785l11.422-11.422c11.422-11.422 12.209-11.422 55.138-11.422h43.717v70.892h-39.385v78.769h724.677v-78.769h-39.385v-70.892h43.717c42.929 0 43.717 0 55.138 11.422l11.422 11.422v397.785l-11.815 10.24c-22.843 18.905-94.523 37.022-192.985 48.049-50.018 5.908-322.56 11.028-370.215 7.089zM851.102 568.911c15.754-10.24 27.175-31.114 27.175-49.231 0-18.511-13.785-42.929-28.751-50.806-16.935-8.665-44.898-8.665-61.046 0.788-25.994 15.754-35.446 57.108-18.511 83.102 16.542 25.206 55.926 33.083 81.132 16.148zM233.157 132.529l1.182-177.625 22.055-18.905h519.089l22.055 18.905 2.363 355.249h-567.926l1.182-177.625zM724.677 255.015v-19.692h-417.477v39.385h417.477v-19.692zM724.677 178.215v-21.662h-417.477v43.323h417.477v-21.662zM724.677 103.385v-21.662h-417.477v43.323h417.477v-21.662zM724.677 26.585v-19.692h-417.477v39.385h417.477v-19.692z" />
<glyph unicode="&#xe624;" glyph-name="gbiconv1-36" d="M334.375 843.815c-197.317-37.415-338.708-213.858-329.255-411.569 5.12-107.126 46.080-197.317 123.668-272.148 53.563-51.594 110.671-83.102 185.108-102.006 86.252-22.055 185.895-10.24 270.966 32.295s158.326 122.092 192.591 209.132c22.449 56.714 27.175 82.708 27.175 148.48 0 53.563-1.182 65.772-10.24 100.431-5.908 21.662-10.634 40.566-10.634 41.748 0 1.575 12.997 5.908 28.751 9.846 37.415 9.452 104.763 9.846 125.243 0.394 42.929-19.298 57.895-80.738 34.658-142.178-9.058-24.418-31.902-59.471-74.831-114.609-30.72-39.385-51.988-79.951-59.077-112.246-9.846-46.474 3.545-95.705 34.658-128 31.902-33.083 100.037-51.2 130.757-34.658 17.723 9.452 23.237 18.117 16.542 26.388-4.332 5.12-13.391 6.302-43.323 6.302-28.357 0-41.748 1.969-53.957 7.483-33.083 14.966-56.32 59.865-51.2 100.431 3.151 27.175 22.843 64.985 67.742 128.394 77.194 109.095 94.523 168.96 68.923 237.095-25.994 68.529-111.065 90.978-213.071 56.714l-26.782-9.058-19.692 31.902c-57.502 93.342-142.178 155.963-248.123 183.926-40.172 10.634-124.849 13.391-166.597 5.514zM444.652 707.938c43.323-22.055 59.077-76.406 34.658-120.123-27.569-48.837-101.612-55.926-137.846-13.391-37.415 43.323-25.6 107.126 24.418 133.514 19.692 10.24 58.683 10.634 78.769 0zM259.545 522.831c43.323-22.055 59.077-76.406 34.658-120.123-27.569-48.837-101.612-55.926-137.846-13.391-37.415 43.323-25.6 107.126 24.418 133.514 19.692 10.24 58.683 10.634 78.769 0zM629.76 522.831c43.323-22.055 59.077-76.406 34.658-120.123-27.569-48.837-101.612-55.926-137.846-13.391-37.415 43.323-25.6 107.126 24.418 133.514 19.692 10.24 58.683 10.634 78.769 0zM432.443 469.268c20.086-22.449 4.726-56.714-25.6-56.714-20.086 0-31.902 8.665-35.052 25.994-3.545 18.511 3.151 32.295 19.298 38.991 15.754 7.089 29.932 4.332 41.354-8.271zM444.652 337.723c43.323-22.055 59.077-76.406 34.658-120.123-27.569-48.837-101.612-55.926-137.846-13.391-37.415 43.323-25.6 107.126 24.418 133.514 19.692 10.24 58.683 10.634 78.769 0z" />
<glyph unicode="&#xe625;" glyph-name="gbiconv1-37" d="M0 448v-512h1024v1024h-1024v-512zM189.046 820.185v-49.231h-98.462v98.462h98.462v-49.231zM748.308 680.369v-189.046h-472.615v378.092h472.615v-189.046zM933.415 820.185v-49.231h-98.462v98.462h98.462v-49.231zM189.046 680.369v-47.262h-98.462v94.523h98.462v-47.262zM933.415 680.369v-47.262h-98.462v94.523h98.462v-47.262zM189.046 540.554v-49.231h-98.462v98.462h98.462v-49.231zM933.415 540.554v-49.231h-98.462v98.462h98.462v-49.231zM189.046 355.446v-49.231h-98.462v98.462h98.462v-49.231zM748.308 215.631v-189.046h-472.615v378.092h472.615v-189.046zM933.415 355.446v-49.231h-98.462v98.462h98.462v-49.231zM189.046 215.631v-47.262h-98.462v94.523h98.462v-47.262zM933.415 215.631v-47.262h-98.462v94.523h98.462v-47.262zM189.046 75.815v-49.231h-98.462v98.462h98.462v-49.231zM933.415 75.815v-49.231h-98.462v98.462h98.462v-49.231z" />
<glyph unicode="&#xe626;" glyph-name="gbiconv1-38" d="M0 832v-41.354h551.385v82.708h-551.385v-41.354zM43.323 448v-295.385h468.677v590.769h-468.677v-295.385zM555.323 448v-295.385h212.283l2.363 200.074 11.815 17.329c6.695 9.058 20.086 21.268 29.538 26.782 17.329 9.452 19.692 9.846 115.397 11.028l97.28 1.575v333.982h-468.677v-295.385zM641.969 660.677v-43.323h-47.262v86.646h47.262v-43.323zM728.615 660.677v-43.323h-47.262v86.646h47.262v-43.323zM811.323 660.677v-43.323h-43.323v86.646h43.323v-43.323zM897.969 660.677v-43.323h-47.262v86.646h47.262v-43.323zM984.615 660.677v-43.323h-47.262v86.646h47.262v-43.323zM641.969 235.323v-43.323h-47.262v86.646h47.262v-43.323zM728.615 235.323v-43.323h-47.262v86.646h47.262v-43.323zM0 64v-41.354h551.385v82.708h-551.385v-41.354z" />
<glyph unicode="&#xe627;" glyph-name="gbiconv1-39" d="M3.938 446.031v-510.031h1020.062v1020.062h-1020.062v-510.031zM941.292 556.308v-313.108h-850.708v626.215h850.708v-313.108zM271.754 724.874c-22.843-8.665-43.323-37.022-43.323-60.258 0-43.323 46.868-77.194 85.071-61.046 20.086 8.271 28.751 16.542 37.415 35.446 9.452 20.48 9.452 31.114-0.788 51.988-13.391 27.569-51.2 44.111-78.375 33.871zM627.003 585.452c-37.022-55.926-69.317-102.006-71.286-102.006s-25.206 22.449-51.2 50.018c-26.388 27.175-48.443 48.837-49.231 48.049s-23.237-37.022-50.018-80.345c-26.388-43.323-48.837-79.557-49.625-80.345-0.788-1.182-18.117 14.572-38.597 35.052s-37.809 36.234-38.991 35.052c-2.363-2.363-77.194-152.812-77.194-155.175 0-1.182 143.754-1.969 319.015-1.969 175.655 0 319.015 0.788 319.015 1.969 0 3.545-138.634 346.585-141.391 349.342-1.182 1.182-33.083-43.323-70.498-99.643z" />
<glyph unicode="&#xe628;" glyph-name="gbiconv1-40" d="M663.631 904.468c-47.655-12.997-88.222-24.025-90.191-24.418-1.969-0.788 24.025-8.665 57.502-17.723s64.197-15.36 68.135-14.178c3.938 1.575 7.877 0.394 9.846-2.757 3.151-4.332 66.954-24.418 70.105-21.268 1.182 0.788-25.6 100.825-27.569 102.4-0.788 0.788-40.172-9.452-87.828-22.055zM260.726 889.895c-15.754-60.652-174.474-653.391-183.532-685.292-6.695-23.237-8.271-33.477-4.726-34.658 8.665-3.151 93.342-26.388 260.332-71.286 343.040-91.766 482.855-128 484.825-126.031 2.757 2.363 44.898 158.326 146.905 542.326 27.963 105.157 51.594 194.166 52.382 198.498 1.182 6.302-8.665 9.846-81.526 28.751-109.883 28.751-625.034 165.809-648.665 172.505l-18.117 5.12-7.877-29.932zM629.76 759.138c170.142-45.686 309.563-83.495 310.351-84.283 1.182-0.788-120.517-459.618-122.486-461.982-2.363-2.757-626.609 167.385-626.215 170.535 2.363 18.905 122.486 458.437 125.637 458.437 2.363 0 142.966-37.415 312.714-82.708zM407.237 702.425c-26.388-11.422-38.203-39.778-26.782-63.803 9.452-20.086 26.782-29.932 48.443-27.963 48.837 5.12 59.077 72.862 14.178 91.766-16.542 6.695-20.086 6.695-35.84 0zM656.148 534.252c-38.597-34.265-71.68-61.44-73.649-60.652-1.575 1.182-13.785 21.662-27.175 45.292-13.391 24.025-25.6 43.323-27.175 43.323s-25.6-21.268-53.169-47.262c-27.963-25.994-51.594-47.262-53.169-47.262s-11.422 14.966-22.055 33.477c-18.511 31.508-19.692 33.083-25.994 26.782-29.145-30.72-82.314-93.735-79.557-94.523 182.351-49.625 463.557-122.88 465.132-121.305s-29.932 281.994-32.295 283.963c0 0.394-32.295-27.569-70.892-61.834zM100.431 753.625c-49.625-13.391-92.554-25.206-94.523-26.388-2.363-0.788 13.391-66.954 39.778-165.022 49.625-184.714 42.142-174.474 64.591-88.615l12.209 47.262-21.662 80.738c-11.815 44.111-21.268 80.738-20.874 80.738 0.394 0.394 20.48 5.514 44.111 11.815 24.025 5.908 44.505 12.209 46.474 13.785 2.363 1.969 23.237 71.68 21.268 70.498-0.394 0-41.354-11.422-91.372-24.812zM169.354 101.022c0-0.788 7.483-29.145 16.935-63.015l16.542-61.44 105.157 27.963c58.289 15.36 105.551 28.751 105.551 29.932s-52.775 16.148-117.366 33.083c-64.197 17.329-119.335 31.902-121.698 33.083-2.757 0.788-5.12 1.182-5.12 0.394z" />
<glyph unicode="&#xe629;" glyph-name="gbiconv1-41" d="M329.255 925.342c-0.788-1.575-11.422-40.96-24.025-87.434-12.209-46.474-24.812-92.948-27.569-103.188l-5.514-18.905h61.046l16.935 63.803c9.452 35.052 18.117 66.56 19.692 70.498 1.969 5.514 38.597-3.545 290.658-70.892 193.378-51.594 288.689-78.769 288.689-82.314 0-6.302-110.277-419.446-112.64-421.809-1.575-1.969-60.652 12.603-74.831 18.117-5.908 2.363-6.302-6.302-4.726-108.308 0.788-61.046 2.757-111.852 3.938-113.034 3.151-3.151 74.043-23.237 75.618-21.268 1.575 1.575 186.683 690.412 185.895 691.594 0 0-153.6 41.354-341.071 91.372-187.471 50.412-342.646 92.16-345.403 92.948s-5.514 0.394-6.695-1.182zM3.938 331.815v-360.369h720.738v720.738h-720.738v-360.369zM665.6 410.585v-222.523h-602.585v445.046h602.585v-222.523zM184.32 524.406c-12.997-7.089-22.843-24.418-22.843-40.566 0-14.966 19.692-38.203 35.052-41.748 16.148-3.545 38.203 7.089 47.655 22.449 9.452 15.754 9.846 23.631 1.969 40.172-11.028 23.237-38.991 32.295-61.834 19.692zM441.895 429.489l-48.837-73.255-72.074 72.074-35.052-57.108c-19.298-31.508-36.234-57.108-37.415-57.108-1.575 0-14.178 11.422-27.963 25.6l-25.6 25.6-26.782-53.563c-14.572-29.538-25.994-54.351-25.206-55.138s101.612-1.182 224.492-0.788l222.523 1.182-48.837 121.698c-26.782 66.954-49.231 122.092-50.018 122.88-0.394 0.394-22.843-31.902-49.231-72.074z" />
<glyph unicode="&#xe62a;" glyph-name="gbiconv1-42" d="M45.292 856.025c-14.572-6.302-36.234-30.326-40.172-44.898-1.969-5.908-3.151-148.086-3.151-315.865v-305.231l10.634-17.723c5.908-10.634 16.542-21.268 25.994-26.782l15.754-8.665h402.117c393.058 0 402.905 0 417.871 7.877 18.511 9.452 29.538 24.418 35.446 47.655 2.757 11.815 3.938 108.702 3.151 316.652l-1.182 299.323-9.846 16.935c-5.514 10.24-16.542 21.268-25.994 26.782l-16.148 9.452h-401.329c-322.954-0.394-403.692-1.182-413.145-5.514zM842.831 499.2v-295.385h-771.938v590.769h771.938v-295.385zM197.317 676.037c-28.357-11.422-47.655-38.203-47.655-66.166 0-20.086 5.908-35.052 18.905-49.231 39.385-42.142 110.277-20.086 120.911 37.809 9.058 47.655-47.655 95.311-92.16 77.588zM575.015 531.889c-40.172-63.803-74.043-116.972-75.225-117.76-1.575-0.788-26.388 23.237-54.745 53.563-28.751 30.326-53.563 55.138-55.138 55.138-1.182 0-25.994-40.172-55.138-89.403-28.751-49.625-52.775-90.585-53.957-91.766-0.788-0.788-19.692 17.723-41.748 41.354l-40.172 42.535-42.535-89.403c-23.631-49.625-41.748-90.585-40.96-91.372s155.569-1.182 344.222-0.788l342.646 1.182-76.012 198.892c-42.142 109.489-76.8 200.074-77.194 201.255-0.788 1.182-33.871-49.625-74.043-113.428zM953.108 453.12c0-281.206-0.788-299.323-7.483-314.289-8.665-19.692-27.175-35.84-46.868-41.354-9.452-2.363-147.298-3.938-401.329-3.938h-386.757l3.545-11.815c5.908-20.48 18.511-37.415 34.658-46.474l15.754-8.665h400.148c327.286 0 402.905 0.788 413.145 5.514 15.36 6.302 37.022 29.932 40.96 44.898 1.969 5.908 3.151 148.086 3.151 315.865v305.231l-9.846 16.935c-10.24 18.117-35.446 36.234-50.412 36.234h-8.665v-298.142z" />
<glyph unicode="&#xe62b;" glyph-name="gbiconv1-43" d="M870.4 839.483l-15.754-14.178v-722.314l11.028-9.846c21.662-19.692 23.631-20.48 35.84-15.754 5.908 2.757 12.997 9.452 15.754 14.572 2.757 6.695 4.332 53.563 4.332 147.298v137.058l12.997 2.757c29.538 6.695 60.652 31.114 69.711 55.138 7.089 18.117 5.514 42.535-3.545 60.258-12.997 25.6-45.292 48.049-69.317 48.049h-9.846v291.84l-9.846 9.452c-12.997 13.391-22.843 12.209-41.354-4.332zM791.631 762.683c-92.554-84.283-255.606-145.329-388.726-145.329h-24.812v-306.018l48.443-2.363c130.363-5.908 266.634-57.895 359.975-137.846 10.634-8.665 22.055-18.511 25.994-21.662 6.302-5.514 6.695 9.846 6.695 313.502 0 176.049-1.182 319.803-2.757 319.803-1.969-0.394-12.997-9.058-24.812-20.086zM93.342 587.028c-5.12-16.935-11.815-40.172-14.572-51.2l-4.726-20.874h-21.268c-29.932 0-43.323-7.877-49.231-28.357-5.908-22.055-1.575-49.625 9.058-61.046 7.089-7.877 12.209-9.058 35.052-9.058h26.388l4.332-20.48c2.363-11.422 9.058-34.658 14.572-51.2l10.24-30.72h69.317l29.932-120.911c16.542-66.954 31.902-128 34.265-135.877l3.938-14.966h97.28l-21.268 83.889c-11.422 45.686-21.268 83.889-21.268 84.677 0 0.394 7.089 0.788 15.754 0.788s15.754 1.182 15.754 3.151c0 1.575-2.757 15.754-6.695 31.508l-6.695 28.357h-16.542c-16.148 0-17.329 0.788-20.874 14.966-7.089 24.812-7.483 24.418 29.145 24.418h33.477v303.262h-235.126l-10.24-30.326z" />
<glyph unicode="&#xe62c;" glyph-name="gbiconv1-44" d="M950.351 778.831c-7.089-3.938-15.754-12.209-19.692-18.511-6.695-10.24-7.089-28.751-7.089-328.074 0-347.766-0.788-335.557 23.631-350.523 16.148-9.846 35.052-9.846 51.2 0 24.418 14.966 23.631 2.757 23.631 350.523 0 299.323-0.394 317.834-7.089 328.074-9.058 13.785-29.145 26.388-42.142 26.388-5.514 0-15.36-3.545-22.449-7.877zM531.692 636.258c-193.772-42.535-361.945-79.557-373.366-81.92l-20.48-4.332v-243.003l26.782-5.908c14.572-3.151 45.292-10.24 68.923-14.966l42.142-9.452v-76.8c0-72.468 0.788-77.588 9.058-92.554 4.726-8.665 15.754-19.692 24.418-24.418l15.754-9.058 173.686 0.788 173.686 1.182 14.178 11.028c19.298 14.572 25.6 28.357 28.751 61.44 1.575 15.36 4.332 27.963 6.302 27.963s38.991-7.877 82.708-17.723c43.717-9.846 79.951-16.935 80.738-16.542 0.788 0.788 0.788 129.969 0.394 286.72l-1.182 285.538-352.492-77.982zM684.505 162.462c1.575-28.357-0.788-38.991-11.028-49.231-7.483-7.483-13.785-7.877-178.018-7.877-168.96 0-170.142 0-179.2 8.665-8.665 8.271-9.058 10.24-9.058 81.92v73.649l376.123-83.889 1.182-23.237zM46.868 570.486l-11.422-11.422v-256l10.24-12.209c12.603-14.966 28.357-16.148 43.717-2.757l11.028 9.452 1.182 124.062c1.182 136.271-0.394 148.48-20.874 156.357-16.148 5.908-21.268 4.726-33.871-7.483z" />
<glyph unicode="&#xe62d;" glyph-name="gbiconv1-45" d="M493.883 948.578c-22.055-13.391-34.265-33.871-36.234-59.865l-1.575-23.631-153.994-117.76-153.6-118.154h-73.649v-31.508h35.446v-39.385h39.385v-35.446h724.677v35.446h39.385v39.385h35.446v31.508h-73.649l-141.391 108.702c-115.003 88.222-141.391 110.277-140.603 116.972 0.394 4.726 1.969 15.36 3.545 23.237 4.332 25.994-12.997 59.077-38.203 72.074-16.148 8.271-50.018 7.483-64.985-1.575zM482.855 833.969c19.692-16.935 41.354-22.055 64.197-13.785 9.846 3.545 20.874 7.089 24.025 8.271 3.545 1.182 56.32-35.446 133.908-92.948 70.498-52.382 130.757-97.674 133.908-100.825 4.726-4.726-38.597-5.514-326.892-5.514s-331.618 0.788-326.892 5.514c6.695 6.302 280.812 210.708 283.175 211.102 0.788 0 7.483-5.12 14.572-11.815zM39.385 284.554v-309.169h31.508v35.446h35.446v35.446h39.385v472.615h-39.385v35.446h-35.446v39.385h-31.508v-309.169zM953.108 574.031v-19.692h-35.446v-35.446h-39.385v-472.615h39.385v-35.446h35.446v-35.446h31.508v618.338h-31.508v-19.692zM320.197 436.185c-24.812-14.966-31.902-47.262-15.754-71.286 11.028-16.542 23.631-23.237 44.898-23.237 31.508 0 56.714 33.477 48.049 64.591-1.969 7.483-9.846 18.905-17.723 25.6-16.542 14.572-39.778 16.542-59.471 4.332zM622.671 326.302c-30.72-45.686-57.108-83.102-58.683-83.102s-20.48 17.723-41.748 38.991c-21.662 21.662-40.566 38.597-42.142 37.809-1.575-1.182-20.086-30.326-41.354-64.985-21.662-34.658-40.172-63.015-41.354-63.015s-15.754 12.603-32.689 27.963c-16.542 15.36-30.72 27.569-31.508 26.782-4.332-4.726-61.834-122.88-60.258-124.062 0.788-0.788 118.548-1.182 261.908-0.788l260.332 1.182-57.502 141.785c-31.114 77.982-57.502 142.572-58.289 142.966-0.788 0.788-26.388-35.84-56.714-81.526zM149.662 24.615v-17.723h-39.385v-35.446h-35.446v-35.446h874.338v35.446h-35.446v35.446h-39.385v35.446h-724.677v-17.723z" />
<glyph unicode="&#xe62e;" glyph-name="gbiconv1-46" d="M63.803 836.726c-18.117-5.514-47.655-33.083-56.32-51.988-7.089-14.966-7.483-33.871-7.483-336.738 0-363.52-1.969-337.92 32.689-368.64 23.237-20.48 39.778-25.206 87.828-25.206h38.991l32.689 98.462 33.083 98.462h564.382l32.689-98.462 33.083-98.462h41.748c61.834 0.394 87.434 12.603 109.489 51.988l11.422 20.874v319.015c0 315.471 0 319.015-8.271 336.738-4.332 9.846-14.966 24.418-23.237 32.295-29.145 28.357-2.363 26.782-480.098 26.388-289.083-0.394-434.018-1.575-442.683-4.726zM921.6 530.708v-216.615h-827.077v433.231h827.077v-216.615zM161.477 530.708v-145.723h693.169v291.446h-693.169v-145.723zM353.674 602.782c9.058-5.12 21.662-16.935 27.569-25.6 9.452-14.178 10.634-20.086 10.634-46.868 0-27.569-1.182-31.902-11.815-47.262-16.148-22.843-40.172-35.052-69.711-35.052-38.597 0-69.711 22.055-79.951 56.714-10.24 34.265-5.12 57.895 18.511 83.495 27.569 29.538 68.135 35.446 104.763 14.572zM756.578 600.025c16.935-11.422 35.052-44.898 35.052-64.985 0-34.658-20.086-66.954-49.625-81.132-22.449-10.634-63.015-7.089-83.495 7.483-60.258 41.354-40.172 138.634 31.114 151.237 22.843 3.938 49.231-0.788 66.954-12.603zM559.262 530.708v-35.446h-102.4v70.892h102.4v-35.446zM293.022 553.157c-7.877-6.695-10.634-12.997-10.634-22.449s2.757-15.754 10.634-22.449c13.785-11.815 27.963-11.422 39.778 0.788 15.754 15.754 11.815 37.809-8.665 48.443-12.603 6.695-19.298 5.908-31.114-4.332zM684.898 550.794c-12.603-12.603-13.785-18.511-7.089-33.083 4.332-9.846 18.511-18.511 29.538-18.511 9.058 0 29.145 21.662 29.145 31.508 0 11.028-20.48 31.508-31.508 31.508-4.726 0-13.785-5.12-20.086-11.422zM223.311 136.468c-14.966-43.717-26.388-79.951-25.206-80.738 0.788-0.788 140.603-1.182 310.745-0.788l309.563 1.182-27.963 79.557-27.963 79.951h-512.394l-26.782-79.163zM295.385 134.892v-17.723h-35.446v35.446h35.446v-17.723zM362.338 134.892v-17.723h-39.385v35.446h39.385v-17.723zM590.769 134.892v-17.723h-165.415v35.446h165.415v-17.723zM693.169 134.892v-17.723h-39.385v35.446h39.385v-17.723zM756.185 134.892v-17.723h-35.446v35.446h35.446v-17.723z" />
<glyph unicode="&#xe62f;" glyph-name="gbiconv1-47" d="M913.723 953.305c-180.775-8.665-419.052-50.018-588.012-101.612l-35.052-10.634 1.575-325.317 1.182-325.711-41.354-0.394c-34.265-0.394-46.080-1.969-67.742-10.24-78.769-29.538-137.452-93.735-137.058-150.055 0.394-60.258 68.923-102.006 146.905-89.403 37.809 5.908 59.865 14.178 91.372 33.477 34.658 21.662 61.834 49.231 73.649 74.831l9.058 19.692 1.182 297.748 0.788 298.142 44.505 12.209c135.877 37.022 298.535 64.591 458.831 77.194l32.295 2.363v-510.425h-44.111c-55.138 0-89.403-10.24-131.938-38.203-48.837-32.689-75.618-72.074-78.769-115.397-1.575-19.692-0.394-26.782 7.483-41.354 19.298-35.446 59.077-55.138 112.246-55.138 38.203 0 58.683 5.12 101.612 25.6 44.111 20.874 81.92 54.351 99.643 87.828l12.603 23.631v823.926l-22.449-0.788c-12.603-0.394-34.265-1.182-48.443-1.969z" />
<glyph unicode="&#xe630;" glyph-name="gbiconv1-48" d="M240.64 955.668c-27.569-5.514-46.868-21.268-59.865-48.837-7.089-14.966-7.483-35.446-7.483-458.831 0-420.628 0.394-443.865 7.483-458.831 9.058-20.086 29.145-39.778 47.262-46.080 20.48-7.483 547.446-7.483 567.926 0 18.117 6.302 38.203 25.994 47.262 46.080 7.089 14.966 7.483 38.203 7.483 458.831 0 421.415-0.394 443.865-7.483 458.831-8.665 19.298-25.6 36.628-43.717 44.898-12.209 5.514-44.111 6.302-277.662 7.089-145.329 0-271.754-1.182-281.206-3.151zM600.222 902.498c1.182-10.24 2.363-20.874 2.363-23.631 0-4.726-20.086-5.514-110.277-5.514h-110.277v47.262h215.434l2.757-18.117zM768 491.323v-342.646h-512v685.292h512v-342.646zM535.631 80.542c12.209-9.452 19.692-24.418 19.692-39.385 0-12.209-2.757-18.117-13.391-28.751-33.477-33.477-85.465-2.757-72.862 43.717 5.514 19.298 20.086 29.538 42.535 29.538 9.846 0 20.874-2.363 24.025-5.12z" />
<glyph unicode="&#xe631;" glyph-name="gbiconv1-49" d="M181.169 955.668c-24.025-4.726-46.868-21.662-57.895-42.535l-9.058-17.723 0.788-451.742 1.182-451.742 11.815-16.935c7.089-10.24 19.692-20.874 31.508-26.782l19.298-10.24h674.265l19.298 10.24c11.815 5.908 24.418 16.542 31.508 26.782l11.815 16.935v912.148l-11.815 16.935c-7.089 10.24-19.692 20.874-31.508 26.782l-19.298 10.24-327.286 0.788c-179.594 0-334.769-1.182-344.615-3.151zM838.892 493.292v-384h-645.908v768h645.908v-384zM545.871 52.578c11.422-11.422 13.391-16.148 13.391-31.114 0-21.268-10.24-35.84-29.538-42.142-29.538-9.846-57.108 10.634-57.108 42.142 0 14.966 1.969 19.692 13.391 31.114 11.028 11.028 16.542 13.391 29.932 13.391s18.905-2.363 29.932-13.391z" />
<glyph unicode="&#xe632;" glyph-name="gbiconv1-50" d="M240.64 955.668c-27.569-5.514-46.868-21.268-59.865-48.837-7.089-14.966-7.483-35.446-7.483-458.831 0-420.628 0.394-443.865 7.483-458.831 9.058-20.086 29.145-39.778 47.262-46.080 20.48-7.483 547.446-7.483 567.926 0 18.117 6.302 38.203 25.994 47.262 46.080 7.089 14.966 7.483 38.203 7.483 458.831 0 421.415-0.394 443.865-7.483 458.831-8.665 19.298-25.6 36.628-43.717 44.898-12.209 5.514-44.111 6.302-277.662 7.089-145.329 0-271.754-1.182-281.206-3.151zM768 640.985v-236.308h-512v472.615h512v-236.308zM576.985 307.003c30.72-14.572 56.714-40.172 71.68-70.892 10.24-20.48 11.028-26.388 11.028-65.772 0-40.172-0.788-44.898-11.815-66.166-14.966-30.326-49.625-62.228-79.557-74.043-31.902-12.603-80.738-12.603-112.64 0-29.932 11.815-65.772 44.898-80.345 74.437-9.846 20.48-11.028 26.388-11.028 65.772s0.788 45.292 11.028 65.772c19.692 39.778 57.895 71.286 100.037 81.92 27.963 7.089 73.255 1.969 101.612-11.028zM487.975 249.895c-34.658-12.997-53.957-36.628-57.502-71.286-5.514-53.957 47.655-102.006 98.462-89.009 25.994 7.089 44.898 22.055 56.32 46.080 9.058 17.723 10.24 24.418 8.271 42.929-1.575 14.178-5.908 27.569-12.209 37.415-19.298 29.145-63.015 44.898-93.342 33.871z" />
<glyph unicode="&#xe633;" glyph-name="gbiconv1-51" d="M477.735 952.517c-24.025-6.302-45.292-24.418-55.532-47.655-3.151-7.483-7.089-30.326-8.271-50.806l-2.363-37.022-15.754-5.514c-8.665-2.757-29.538-11.815-46.474-19.692l-30.72-14.572-30.326 30.326c-32.295 31.902-50.412 42.142-74.437 42.142-22.449-0.394-43.717-12.209-70.892-39.778-51.594-52.775-49.625-88.615 7.483-147.692l26.782-27.963-11.422-25.206c-5.908-13.785-14.178-34.265-17.723-45.292l-6.695-20.48-40.96-1.575c-37.809-1.182-42.142-2.363-57.895-13.391-9.452-6.302-21.268-19.692-26.782-29.145-8.665-15.754-9.846-22.449-9.846-57.108s1.182-41.354 9.846-57.108c5.514-9.452 17.329-22.843 26.782-29.538 16.148-11.028 20.086-11.815 57.895-12.997l40.566-1.575 8.665-24.025c5.12-13.391 13.785-34.265 20.086-46.474l11.028-22.055-29.538-29.145c-33.083-32.689-44.898-53.563-44.898-77.588 0-24.418 8.665-41.354 34.265-68.135 28.357-29.932 48.049-40.566 74.043-40.566 26.388 0 41.748 8.665 77.588 44.111l30.326 29.932 30.72-14.178c16.935-7.877 37.415-16.148 45.686-18.905l14.572-4.726v-24.812c0-52.775 14.572-83.889 47.655-100.431 21.662-11.422 87.828-11.422 109.489 0 33.083 16.542 47.655 47.655 47.655 100.431v24.812l14.966 4.726c7.877 2.757 28.357 11.028 45.292 18.905l30.72 14.178 30.326-29.932c35.84-35.446 51.2-44.111 77.588-44.111 25.994 0 45.686 10.634 74.043 40.566 25.6 26.782 34.265 43.717 34.265 68.135 0 24.025-11.815 44.898-44.898 77.588l-29.538 29.145 11.028 22.055c6.302 12.209 14.966 33.083 20.086 46.474l8.665 24.025 40.566 1.575c37.809 1.182 41.748 1.969 57.895 12.997 28.357 20.086 34.658 35.84 34.658 86.646s-6.302 66.56-34.658 86.252c-15.754 11.028-20.086 12.209-57.895 13.391l-40.96 1.575-6.695 20.48c-3.545 11.028-11.815 31.508-17.723 45.292l-11.422 25.206 28.751 29.932c32.295 33.871 42.142 51.594 42.142 74.831 0 24.418-9.452 42.929-36.628 70.892-27.175 27.569-48.443 39.385-70.892 39.778-24.025 0-42.142-10.24-74.437-42.142l-30.326-30.326-30.72 14.572c-16.935 7.877-37.809 16.935-46.474 19.692l-15.754 5.514-2.363 37.022c-1.182 20.48-5.12 43.323-8.271 50.806-7.089 16.148-23.631 33.477-40.172 42.142-13.785 7.089-72.074 10.634-91.766 5.514zM587.618 657.132c55.532-17.723 107.126-63.409 133.514-117.76 41.354-85.465 23.631-192.197-42.929-257.575-46.474-46.080-98.855-67.742-162.265-67.742s-115.791 21.662-162.265 67.742c-37.809 37.022-60.258 87.434-64.591 144.542-6.695 90.585 43.717 177.625 127.606 220.16 44.898 22.843 118.154 27.569 170.929 10.634zM474.585 533.071c-35.84-16.542-57.895-50.018-58.289-89.009-0.394-55.532 43.717-100.037 99.643-100.037s100.037 44.505 99.643 100.037c-0.394 26.388-7.483 44.505-25.206 64.985-28.357 32.295-76.8 42.535-115.791 24.025z" />
<glyph unicode="&#xe634;" glyph-name="gbiconv1-52" d="M392.665 954.486c-29.145-11.028-38.203-25.6-38.203-64.197v-26.782l-22.449-8.271c-12.603-4.726-28.357-11.028-35.446-13.785-12.603-5.12-12.997-4.726-35.84 16.935-25.6 24.418-36.628 29.145-59.077 24.812-10.634-1.969-20.48-8.665-36.628-25.206-35.84-36.628-35.84-57.502 0.788-96.886l23.237-24.812-11.815-24.812c-6.302-13.785-11.815-28.357-11.815-31.902 0-5.908-3.938-7.089-25.994-7.089-50.806 0-68.529-18.117-68.529-70.105 0-28.357 1.182-33.083 10.24-44.111 14.966-17.723 29.538-23.631 57.502-23.631l24.812-0.394 12.603-31.902 12.603-32.295-19.692-20.874c-37.022-39.385-39.385-63.409-8.271-96.492 40.172-43.323 69.317-41.748 114.215 5.908l13.391 13.785 25.994-11.422c14.572-5.908 29.538-11.815 33.477-12.997 5.514-1.575 6.695-6.695 6.695-28.751 0-47.262 18.117-64.197 67.742-64.197 48.049 0 65.772 16.542 69.317 63.409 1.575 20.874 3.545 28.357 8.271 29.932 3.545 1.182 17.723 7.089 31.508 13.785l25.6 11.422 24.812-24.812 25.206-24.812h47.262l23.237 24.025c37.022 38.203 37.022 57.895 0 97.674l-23.631 24.812 11.815 26.388c6.695 14.178 11.815 28.357 11.815 31.902 0 4.726 5.514 5.908 25.994 5.908 49.625 0 70.498 20.48 70.498 68.923-0.394 48.049-16.148 64.985-64.197 68.923l-28.751 1.969-25.994 64.591 21.268 20.874c37.415 37.022 37.415 64.985-0.394 100.825-35.052 33.477-57.108 32.689-93.735-2.363-21.662-20.48-24.025-21.662-33.871-17.723-5.908 2.363-20.48 8.665-32.689 13.785l-22.449 9.058-1.575 28.751c-1.969 30.326-7.877 42.535-27.175 56.714-12.997 9.846-52.382 12.603-71.68 5.514zM452.923 757.169c9.452-1.182 25.206-5.908 35.052-10.24 95.705-42.142 122.092-174.080 50.018-250.88-84.283-90.191-234.338-54.351-268.209 63.803-20.48 71.286 14.966 152.418 80.738 184.714 20.874 10.24 60.258 18.511 76.8 16.148 4.332-0.394 15.754-1.969 25.6-3.545zM389.12 664.615c-20.48-11.028-31.902-28.751-33.871-53.957s3.545-40.566 21.268-56.32c28.751-25.206 65.378-24.025 92.554 3.545 25.994 25.994 28.357 63.015 5.514 90.191-20.48 24.025-57.108 31.114-85.465 16.542zM754.215 268.8c-6.695-6.302-9.846-13.785-9.846-22.843 0-11.815-1.969-14.178-15.754-20.48-15.754-7.089-16.148-7.089-24.812 0.788-22.055 20.086-35.052 20.48-51.988 0.788-12.997-15.754-12.603-25.994 2.757-41.748l12.209-12.603-6.695-15.754c-6.302-13.391-9.058-15.36-22.843-17.329-21.662-2.757-28.751-11.028-28.751-32.689 0-21.268 11.028-33.083 31.508-33.083 11.028 0 13.391-1.969 19.692-15.754l7.089-15.36-12.603-14.178c-15.754-18.117-15.36-28.751 0.788-44.505s26.388-15.754 44.111-0.394l14.178 12.603 15.36-7.089c11.815-5.12 15.754-9.452 15.754-16.148 0-26.782 20.48-41.354 46.474-32.689 13.391 4.332 20.48 15.754 20.48 32.689 0 6.695 3.938 11.028 15.754 16.148l15.36 7.089 14.178-12.603c18.117-15.754 28.751-15.36 44.505 0.788s15.754 26.388 0.394 44.111l-12.603 14.178 7.089 15.36c6.302 13.785 8.665 15.754 19.692 15.754 20.48 0 31.508 11.815 31.508 33.083 0 21.662-7.089 29.932-28.751 32.689-13.785 1.969-16.542 3.938-22.843 17.329l-6.695 15.754 12.209 12.603c15.36 15.754 15.754 25.994 2.757 41.748-16.935 19.692-29.932 19.298-51.988-0.788-8.665-7.877-9.058-7.877-24.812-0.788-13.785 6.302-15.754 8.665-15.754 20.48 0 18.511-14.572 32.689-33.477 32.689-9.846 0-17.329-3.151-23.631-9.846zM809.354 176.64c20.48-9.058 40.172-31.902 43.717-49.625 6.695-37.022-9.058-74.043-37.809-88.615-29.145-14.966-74.831-7.877-95.311 14.572-16.935 18.511-24.025 57.895-14.572 82.708 14.572 38.597 65.378 58.683 103.975 40.96zM764.062 135.68c-23.631-12.209-23.631-41.748-0.394-55.532 12.209-7.089 13.785-7.089 26.388-0.788 29.145 13.785 25.206 51.988-6.302 59.077-5.514 1.575-14.178 0-19.692-2.757z" />
<glyph unicode="&#xe635;" glyph-name="gbiconv1-53" d="M456.862 917.071v-43.323l-22.449-4.332c-12.603-2.757-35.052-9.058-50.412-14.178-14.966-5.12-28.751-9.452-29.932-9.452-1.575 0-11.815 16.148-23.237 35.446l-20.48 35.84-22.055-12.603c-12.603-6.695-34.658-19.298-49.231-27.963l-26.782-15.36 11.815-20.48c6.302-11.422 15.754-27.963 20.874-37.022l9.452-16.935-37.415-38.991-37.809-38.597-21.662 11.815c-11.815 6.302-29.145 15.754-38.203 21.268l-16.542 9.452-15.36-26.782c-8.665-14.572-21.268-36.628-27.963-49.231l-12.603-22.055 35.84-20.48c19.692-11.422 36.628-22.055 37.809-24.025 0.788-1.575-1.575-13.785-5.908-26.388-4.332-12.997-10.24-35.446-12.997-49.625l-5.12-25.994h-92.554v-118.154h92.554l5.12-25.994c2.757-14.178 8.665-36.628 12.997-49.625 4.332-12.603 6.695-24.812 5.908-26.388-1.182-1.969-18.117-12.603-37.809-24.025l-35.84-20.48 12.603-22.055c6.695-12.603 19.298-34.658 27.963-49.231l15.36-26.782 16.542 9.452c9.058 5.514 26.388 14.966 38.203 21.268l21.662 11.815 37.809-38.597 37.415-38.991-9.452-16.935c-5.12-9.058-14.572-25.6-20.874-37.022l-11.815-20.48 26.782-15.36c14.572-8.665 36.628-21.268 49.231-27.963l22.055-12.603 20.48 35.84c11.422 19.298 21.662 35.446 23.237 35.446 1.182 0 14.966-4.332 29.932-9.452 15.36-5.12 37.809-11.422 50.412-14.178l22.449-4.332v-86.252h117.76l2.363 84.283 27.175 5.12c14.966 2.363 38.203 8.665 52.382 13.391 13.785 4.332 25.6 7.483 26.388 7.089 0.394-0.788 9.452-16.148 19.692-34.265l18.905-32.689 22.449 12.603c12.209 6.695 34.265 19.298 48.837 27.963l26.782 15.36-12.997 22.449c-27.569 48.837-29.932 37.809 16.542 83.495 40.172 39.778 41.354 40.566 51.2 34.658 5.514-2.757 20.086-11.422 32.295-18.117l22.449-12.997 15.36 26.782c8.665 14.572 21.268 36.628 27.963 48.837l12.603 22.449-31.902 18.511c-17.329 10.24-31.508 19.298-31.508 20.086s4.332 14.178 9.452 29.932c5.514 15.754 11.815 39.778 14.572 53.169l4.726 24.812h73.649v118.154h-73.649l-4.726 24.812c-2.757 13.391-9.058 37.415-14.572 53.169-5.12 15.754-9.452 29.145-9.452 29.932s14.178 9.846 31.508 20.086l31.902 18.511-12.603 22.449c-6.695 12.209-19.298 34.265-27.963 48.837l-15.36 26.782-22.449-12.997c-12.209-6.695-26.782-15.36-32.295-18.117-9.846-5.908-11.028-5.12-51.2 34.658-46.474 45.686-44.111 34.658-16.542 83.495l12.997 22.449-26.782 15.36c-14.572 8.665-36.628 21.268-48.837 27.963l-22.449 12.603-18.905-32.689c-10.24-18.117-19.298-33.477-19.692-34.265-0.788-0.394-12.603 2.757-26.388 7.089-14.178 4.726-37.415 11.028-52.382 13.391l-27.175 5.12-2.363 84.283h-117.76v-42.929zM580.923 697.698c42.929-10.24 79.163-31.508 116.185-68.529 53.169-52.775 74.831-105.551 74.831-181.169 0-73.255-23.631-130.757-74.437-181.169-51.594-51.2-108.702-74.831-181.563-74.831-74.437 0-128.394 21.662-179.594 72.862-46.868 46.474-68.529 89.403-76.406 152.025-9.846 79.557 16.935 157.145 73.649 213.465 66.166 65.772 154.388 89.403 247.335 67.348zM474.585 533.858c-22.449-11.422-32.689-22.055-44.111-44.111-31.902-62.622 14.178-136.271 85.465-136.271 54.351 0 94.523 40.172 94.523 94.523 0 55.138-40.172 94.917-95.311 94.523-16.935-0.394-29.538-2.757-40.566-8.665z" />
<glyph unicode="&#xe636;" glyph-name="gbiconv1-54" d="M641.182 841.058l-172.505-118.942v-269.785l0.394-270.178 172.898-120.123c139.815-96.886 175.262-119.729 183.926-118.942 33.871 3.545 73.649 25.994 87.828 49.231 7.483 12.209 7.877 22.449 7.877 459.225 0 439.138 0 446.622-7.877 459.225-13.785 22.449-63.015 49.231-89.797 49.231-7.483 0-60.652-34.658-182.745-118.942zM158.72 711.483c-20.48-9.846-38.597-32.295-48.837-58.683-7.089-18.511-7.483-32.689-7.483-200.074 0-200.862 0-202.437 26.388-232.763 25.6-30.326 22.449-29.932 169.748-31.114l130.757-1.182v532.086h-126.818c-121.305 0-128-0.394-143.754-8.271z" />
<glyph unicode="&#xe637;" glyph-name="gbiconv1-55" d="M375.335 720.542l-118.942-81.526-0.394-187.471v-187.077l119.729-83.495c74.043-51.594 123.668-83.495 129.182-83.495 15.754 0 50.412 19.692 58.683 33.083 7.089 11.815 7.483 24.812 7.483 319.409 0 300.898 0 307.594-7.877 320.197-8.665 14.178-41.748 32.295-59.077 32.295-6.302 0-51.594-28.751-128.788-81.92zM867.643 781.982l-16.542-20.48 9.846-12.209c53.957-66.166 88.615-140.997 102.4-220.554 9.058-51.988 5.908-137.058-7.483-187.471-17.329-65.772-47.262-125.243-88.615-176.049l-16.935-20.874 18.511-22.055 18.905-22.055 11.422 13.391c50.412 59.471 92.948 148.874 111.458 232.369 9.846 45.686 11.815 139.815 3.938 189.046-14.966 90.191-55.532 181.563-111.852 250.88-7.483 9.058-14.572 16.542-16.148 16.542-1.182 0-9.846-9.452-18.905-20.48zM764.455 681.945l-15.754-22.055 17.329-20.48c20.48-22.843 45.686-69.317 54.745-100.431 27.963-95.705 7.877-196.529-55.138-273.723-9.452-11.815-17.329-22.449-17.329-24.025 0-3.151 28.751-41.354 31.508-41.354 3.938 0 29.932 33.083 46.474 58.683 66.954 103.188 74.043 244.185 18.117 356.037-15.36 29.932-42.535 70.892-55.926 82.708-7.877 7.089-8.271 6.695-24.025-15.36zM39.385 629.563c-7.483-3.938-18.905-15.754-25.6-25.994l-11.815-18.905-1.182-124.455c-1.575-141.391 0-150.843 23.631-174.474l14.966-14.966h189.046v366.277h-87.828c-77.588 0-89.009-0.788-101.218-7.483zM665.6 577.575l-12.997-26.388 12.603-16.148c19.692-24.812 27.963-50.412 27.963-86.252 0-38.991-7.877-65.772-25.206-85.858l-13.391-15.754 12.209-21.268 12.209-20.874 16.542 18.511c64.591 71.286 63.803 185.895-1.969 262.302l-15.36 17.723-12.603-25.994z" />
<glyph unicode="&#xe638;" glyph-name="gbiconv1-56" d="M450.954 767.803l-141.785-98.068-1.182-224.098-0.788-224.492 132.332-92.16c73.255-50.806 137.846-95.705 143.754-99.643 10.634-7.089 12.603-7.089 32.689-1.182 27.569 8.271 53.957 28.357 60.258 45.686 6.302 18.117 7.089 715.225 1.182 737.28-4.726 16.148-21.662 32.689-45.292 42.929-36.628 15.754-25.6 21.268-181.169-86.252zM48.049 657.92c-7.089-3.545-17.329-11.815-22.449-18.905-21.662-27.963-21.662-29.145-21.662-196.923 0-145.329 0.394-156.751 7.483-170.535 9.058-17.723 26.388-35.84 38.991-40.566 5.12-1.969 57.108-3.545 115.397-3.545h105.945v437.169h-105.157c-89.797 0-107.52-1.182-118.548-6.695zM793.6 550.4l-19.298-19.298 42.142-42.535 41.748-42.535-42.142-42.535-42.142-42.142 40.96-40.96 42.535 42.142 42.535 41.748 42.535-41.748 42.535-42.142 40.96 40.96-42.142 42.142-42.142 42.535 41.748 42.535 42.142 42.535-40.96 40.96-84.677-84.677-41.354 41.354c-22.843 22.843-42.142 41.354-43.323 41.354s-11.028-8.665-21.662-19.692z" />
<glyph unicode="&#xe639;" glyph-name="gbiconv1-57" d="M114.215 790.646v-169.354h122.092v338.708h-122.092v-169.354zM452.923 684.308v-275.692h126.031v551.385h-126.031v-275.692zM795.569 853.662v-106.338h122.092v212.677h-122.092v-106.338zM742.006 701.243c-4.726-0.788-13.391-7.089-19.692-13.391l-11.422-11.815-1.182-72.468c-1.969-116.578-7.877-112.246 147.692-112.246 96.492 0 111.065 0.788 123.274 7.089 21.662 10.634 23.631 18.117 23.631 99.249 0 65.378-0.788 74.043-7.877 85.465-5.12 8.271-12.209 13.785-22.449 16.542-14.178 3.938-213.071 5.514-231.975 1.575zM795.569 597.662v-63.015h-47.262v126.031h47.262v-63.015zM878.277 597.662v-63.015h-47.262v126.031h47.262v-63.015zM968.862 597.662v-63.015h-47.262v126.031h47.262v-63.015zM40.96 560.64l-13.391-13.391v-155.175l26.782-26.782h119.729c130.757 0 130.757 0 142.966 23.631 8.665 16.542 8.665 144.935 0 161.477-11.815 22.843-17.723 23.631-146.117 23.631h-116.578l-13.391-13.391zM114.215 469.662v-64.985h-47.262v129.969h47.262v-64.985zM200.862 469.662v-64.985h-47.262v129.969h47.262v-64.985zM283.569 469.662v-64.985h-47.262v129.969h47.262v-64.985zM795.569 192v-256h122.092v512h-122.092v-256zM395.422 357.415c-4.726-1.575-12.209-8.271-16.935-14.178-7.877-9.846-8.271-14.966-8.271-89.009v-78.769l22.843-22.843h245.76l22.843 22.843v158.326l-11.422 12.603-11.422 12.997-117.76 0.788c-64.591 0.394-121.305-0.788-125.637-2.757zM456.862 256.985v-64.985h-47.262v129.969h47.262v-64.985zM539.569 256.985v-64.985h-47.262v129.969h47.262v-64.985zM626.215 256.985v-64.985h-47.262v129.969h47.262v-64.985zM114.215 127.015v-191.015h122.092v382.031h-122.092v-191.015zM452.923 20.677v-84.677h126.031v169.354h-126.031v-84.677z" />
<glyph unicode="&#xe63a;" glyph-name="gbiconv1-58" d="M0 832v-128h256v256h-256v-128zM385.969 832v-128h252.062v256h-252.062v-128zM768 832v-128h256v256h-256v-128zM0 448v-126.031h256v252.062h-256v-126.031zM385.969 448v-126.031h252.062v252.062h-252.062v-126.031zM768 448v-126.031h256v252.062h-256v-126.031zM0 64v-128h256v256h-256v-128zM385.969 64v-128h252.062v256h-252.062v-128zM768 64v-128h256v256h-256v-128z" />
<glyph unicode="&#xe63b;" glyph-name="gbiconv1-59" d="M0 737.477v-222.523h445.046v445.046h-445.046v-222.523zM578.954 737.477v-222.523h445.046v445.046h-445.046v-222.523zM0 158.523v-222.523h445.046v445.046h-445.046v-222.523zM578.954 158.523v-222.523h445.046v445.046h-445.046v-222.523z" />
<glyph unicode="&#xe63c;" glyph-name="gbiconv1-60" d="M0 832v-128h1024v256h-1024v-128zM0 448v-126.031h1024v252.062h-1024v-126.031zM0 64v-128h1024v256h-1024v-128z" />
<glyph unicode="&#xe63d;" glyph-name="gbiconv1-61" d="M0 832v-128h256v256h-256v-128zM385.969 832v-128h638.031v256h-638.031v-128zM0 448v-126.031h256v252.062h-256v-126.031zM385.969 448v-126.031h638.031v252.062h-638.031v-126.031zM0 64v-128h256v256h-256v-128zM385.969 64v-128h638.031v256h-638.031v-128z" />
</font>
</defs>
</svg>
